<svg width="378" height="294" viewBox="0 0 378 294" fill="none" xmlns="http://www.w3.org/2000/svg"><path d="M.198 257.407C5.713 201.77 19.512 63.585 22.525 43.387 26.31 18 57.41 23.603 57.41 23.603l6.659 256.892H20.706c-5.828 0-11.385-2.513-15.29-6.919a21.208 21.208 0 01-5.219-16.169z" fill="#303C60"/><path d="M351.003 286.971c13.541-.288 24.284-11.501 23.996-25.044l-4.422-208.552c-.244-11.507-9.46-20.802-20.96-21.144l-302.603-8.98c-9-.268-16.432 6.971-16.405 15.977l.726 239.12c.025 8.462 6.986 15.257 15.444 15.078l304.224-6.455z" fill="#8969EA"/><path d="M370.505 269.463c4.332-.067 7.605-3.948 6.932-8.23-4.466-28.398-18.484-126.079-13.986-207.181.205-3.698-2.661-6.844-6.362-6.962L53.12 37.39a7.581 7.581 0 00-7.818 7.291c-1.293 34.097-6.107 174.511.191 224.424a6.006 6.006 0 006.056 5.248l318.956-4.89z" fill="#CFC4EE"/><path d="M362.825 266.27c4.17-.064 7.319-3.799 6.671-7.921-4.296-27.328-17.787-121.331-13.46-199.38.197-3.559-2.56-6.585-6.122-6.699L57.392 42.937a7.296 7.296 0 00-7.525 7.016c-1.244 32.813-5.877 167.939.185 215.973a5.778 5.778 0 005.828 5.049l306.945-4.705z" fill="#CFC4EE"/><path opacity=".72" d="M183.033 101.857l.447 21.072a5.76 5.76 0 01-5.726 5.884l-21.61.122a5.76 5.76 0 01-5.791-5.639l-.471-22.155a5.76 5.76 0 016.014-5.878l21.631.959a5.76 5.76 0 015.506 5.635zm75.55 26.778l-21.609.123a5.762 5.762 0 01-5.792-5.64l-.4-18.842a5.762 5.762 0 015.966-5.881l21.627.777a5.76 5.76 0 015.552 5.635l.38 17.943a5.757 5.757 0 01-5.724 5.885zm-18.932 93.867l20.555-.2a6.286 6.286 0 016.345 6.154l.408 19.255a6.287 6.287 0 01-6.019 6.415l-20.541.87a6.288 6.288 0 01-6.551-6.149l-.423-19.925a6.29 6.29 0 016.226-6.42zm34.581 24.745l-.399-18.826a6.178 6.178 0 016.116-6.311l20.772-.201a6.18 6.18 0 016.237 6.049l.384 18.148a6.18 6.18 0 01-5.915 6.306l-20.756.878a6.179 6.179 0 01-6.439-6.043zm-1.802-84.991l-.327-15.454a6.648 6.648 0 016.659-6.791l19.835.036a6.65 6.65 0 016.635 6.509l.313 14.769a6.648 6.648 0 01-6.429 6.788l-19.82.65a6.651 6.651 0 01-6.866-6.507zm.952 44.91l-.501-23.639a6.18 6.18 0 015.975-6.308l20.284-.663a6.65 6.65 0 016.866 6.505l.505 23.839a6.18 6.18 0 01-6.176 6.311l-20.776.003a6.177 6.177 0 01-6.177-6.048z" fill="#fff"/><path d="M218.172 128.864l-21.609.122a5.76 5.76 0 01-5.792-5.639l-.435-20.524a5.762 5.762 0 015.965-5.881l21.627.777a5.76 5.76 0 015.552 5.637l.416 19.625a5.757 5.757 0 01-5.724 5.883z" fill="#E35B52"/><path opacity=".72" d="M232.963 207.065l-.469-22.107a6.287 6.287 0 016.079-6.418l20.545-.673a6.286 6.286 0 016.491 6.151l.483 22.778a6.287 6.287 0 01-6.284 6.421l-20.559.003a6.29 6.29 0 01-6.286-6.155zM196 139.861l23.597.043a4.77 4.77 0 014.758 4.668l.451 21.257a4.768 4.768 0 01-4.611 4.868l-23.58.772a4.767 4.767 0 01-4.922-4.665l-.468-22.073a4.768 4.768 0 014.775-4.87zm-12.037 5.834l.43 20.245a5.994 5.994 0 01-5.795 6.118l-21.132.693a5.993 5.993 0 01-6.187-5.863l-.445-20.975a5.992 5.992 0 016.001-6.121l21.149.039a5.987 5.987 0 015.979 5.864zm76.622 23.68l-23.581.771a4.767 4.767 0 01-4.922-4.665l-.438-20.677a4.769 4.769 0 014.775-4.871l23.598.043a4.771 4.771 0 014.759 4.668l.421 19.863a4.772 4.772 0 01-4.612 4.868zm-62.4 10.488l20.545-.673a6.287 6.287 0 016.491 6.151l.455 21.46a6.286 6.286 0 01-6.284 6.42l-20.559.003a6.288 6.288 0 01-6.286-6.154l-.441-20.79a6.286 6.286 0 016.079-6.417zm-41.099 1.344l21.984-.72a5.567 5.567 0 015.747 5.446l.458 21.606a5.567 5.567 0 01-5.564 5.686l-21.999.003a5.568 5.568 0 01-5.566-5.451l-.442-20.888a5.566 5.566 0 015.382-5.682zm138.887-53.061l-16.401.093a7.986 7.986 0 01-8.029-7.82l-.288-13.535a7.118 7.118 0 017.37-7.264l18.252.655a7.819 7.819 0 017.534 7.649l.24 11.303c.104 4.875-3.803 8.891-8.678 8.919zm18.279 100.36a6.65 6.65 0 016.582-6.791l7.145-.07c5.429-.052 9.87 3.537 9.966 8.058l.277 13.084c.094 4.485-4.12 8.241-9.5 8.47l-7.67.325a6.178 6.178 0 01-6.438-6.043l-.362-17.033zm-229.735-4.499l14.05-.136a6.292 6.292 0 016.35 6.16l.521 24.515a6.291 6.291 0 01-6.024 6.42l-13.986.593c-5.577.236-10.256-3.401-10.354-8.048l-.447-21.024c-.097-4.61 4.353-8.426 9.89-8.48zm242.894-10.797l-6.974.002a6.649 6.649 0 01-6.647-6.51l-.509-24.029a6.65 6.65 0 016.43-6.789l7.019-.23c5.535-.182 10.142 3.443 10.239 8.052l.446 21.023c.098 4.649-4.422 8.48-10.004 8.481zm-.587-46.004l-8.779.287a5.028 5.028 0 01-5.192-4.92l-.367-17.357a5.03 5.03 0 015.036-5.137l8.865.017c5.377.009 9.733 3.581 9.829 8.059l.225 10.577c.094 4.522-4.19 8.296-9.617 8.474z" fill="#fff"/><path d="M82.273 92.567l14.09.506a5.993 5.993 0 015.776 5.863l.513 24.215a5.993 5.993 0 01-5.957 6.121l-14.508.082c-5.411.031-9.821-3.554-9.917-8.058l-.43-20.255c-.101-4.791 4.689-8.681 10.433-8.474z" fill="#8969EA"/><path opacity=".72" d="M199.242 222.894l20.555-.2a6.286 6.286 0 016.345 6.155l.436 20.571a6.286 6.286 0 01-6.02 6.415l-20.541.87a6.286 6.286 0 01-6.55-6.148l-.451-21.244a6.291 6.291 0 016.226-6.419zM82.866 139.657l14.281.027a5.993 5.993 0 015.981 5.867l.488 23.036a5.993 5.993 0 01-5.794 6.118l-14.339.469c-5.534.181-10.142-3.443-10.24-8.053l-.401-18.983c-.102-4.656 4.433-8.492 10.024-8.481zm.52 43.963l14.906-.488a5.566 5.566 0 015.747 5.446l.403 18.97a5.569 5.569 0 01-5.565 5.687l-14.978.001c-5.385 0-9.755-3.574-9.85-8.059l-.278-13.084c-.096-4.521 4.188-8.295 9.615-8.473zm61.042 3.637l.43 20.287a5.568 5.568 0 01-5.565 5.687l-21.999.003a5.568 5.568 0 01-5.565-5.451l-.415-19.57a5.566 5.566 0 015.383-5.682l21.983-.72a5.566 5.566 0 015.748 5.446zm-25.997 36.421l20.545-.2a6.293 6.293 0 016.351 6.16l.492 23.197a6.291 6.291 0 01-6.023 6.42l-20.532.869a6.292 6.292 0 01-6.556-6.154l-.506-23.867a6.293 6.293 0 016.229-6.425zm207.239-95.7l-8.598.048a5.027 5.027 0 01-5.055-4.923l-.359-16.975a5.028 5.028 0 015.207-5.133l9.106.328c5.212.187 9.331 3.705 9.422 8.051l.215 10.125c.098 4.624-4.382 8.447-9.938 8.479zm-166.83 95.307l20.198-.195a6.644 6.644 0 016.705 6.501l.456 21.534a6.292 6.292 0 01-6.023 6.421l-20.53.868a6.291 6.291 0 01-6.556-6.154l-.479-22.55a6.293 6.293 0 016.229-6.425zm-16.255-122.896l.479 22.533a5.993 5.993 0 01-5.957 6.121l-21.144.12a5.994 5.994 0 01-6.025-5.867l-.497-23.414a5.993 5.993 0 016.207-6.116l21.164.76a5.991 5.991 0 015.773 5.863zm.96 45.234l.46 21.641a5.994 5.994 0 01-5.795 6.118l-21.133.693a5.993 5.993 0 01-6.187-5.865l-.475-22.371a5.994 5.994 0 016.001-6.121l21.149.039a5.99 5.99 0 015.98 5.866z" fill="#fff"/><path d="M328.015 83.067l-.974 7.137a4.688 4.688 0 01-4.543 4.053l-.338.007a4.686 4.686 0 01-4.784-4.588l-.156-7.304a4.688 4.688 0 015.199-4.758l1.464.16a4.686 4.686 0 014.132 5.293zm-33.113-1.837l-.973 7.136a4.69 4.69 0 01-4.544 4.054l-.337.007a4.687 4.687 0 01-4.784-4.588l-.156-7.304a4.687 4.687 0 015.198-4.759l1.465.161a4.685 4.685 0 014.131 5.293zm-40.74.56l-.974 7.137a4.688 4.688 0 01-4.543 4.053l-.337.007a4.686 4.686 0 01-4.785-4.587l-.155-7.305a4.686 4.686 0 015.198-4.758l1.465.161a4.688 4.688 0 014.131 5.292zm-39.694-1.777l-.973 7.135a4.69 4.69 0 01-4.544 4.053l-.337.007a4.686 4.686 0 01-4.784-4.586l-.156-7.304a4.687 4.687 0 015.198-4.758l1.467.16a4.685 4.685 0 014.129 5.293zm-40.769-5.186l-.974 7.137a4.69 4.69 0 01-4.544 4.053l-.337.007a4.687 4.687 0 01-4.784-4.587l-.156-7.305a4.688 4.688 0 015.198-4.76l1.465.162a4.688 4.688 0 014.132 5.293zm-43.19.916l-.973 7.137a4.687 4.687 0 01-4.544 4.052l-.337.007a4.686 4.686 0 01-4.784-4.588l-.156-7.304a4.686 4.686 0 015.198-4.759l1.467.161a4.688 4.688 0 014.129 5.294zm-36.454-.763l-.974 7.137a4.688 4.688 0 01-4.543 4.053l-.337.007a4.687 4.687 0 01-4.784-4.588l-.156-7.304a4.687 4.687 0 015.198-4.758l1.465.16a4.685 4.685 0 014.131 5.293z" fill="#fff"/><path d="M319.856 71.495a8.203 8.203 0 008.202-8.204 8.203 8.203 0 10-16.403 0 8.203 8.203 0 008.201 8.204zm-67.198-.632a8.202 8.202 0 008.201-8.203 8.202 8.202 0 10-16.402 0 8.202 8.202 0 008.201 8.203zm-67.83-2.209a8.203 8.203 0 008.202-8.204 8.203 8.203 0 10-16.403 0 8.203 8.203 0 008.201 8.204zm-67.199-3.156a8.203 8.203 0 008.201-8.203 8.202 8.202 0 10-16.403 0 8.203 8.203 0 008.202 8.203z" fill="#8969EA"/><path d="M111.392.448c13.801 3.012 12.499 39.332 11.389 54.078a6.644 6.644 0 01-6.63 6.148 3.409 3.409 0 01-3.382-3.776c1.192-11.146 3.729-43.24-6.431-44.956 0 0-7.289-1.29-8.515 12.831h-7.885c0-.001 4.1-28.112 21.454-24.325zm67.198 1.868c13.802 3.012 12.499 39.344 11.389 54.09a6.648 6.648 0 01-6.629 6.153 3.408 3.408 0 01-3.381-3.771c1.192-11.146 3.729-43.265-6.431-44.981 0 0-7.289-1.008-8.515 12.806h-7.885c-.002 0 4.1-28.084 21.452-24.297zm67.2 1.875c13.801 3.013 12.499 39.354 11.389 54.1a6.652 6.652 0 01-6.63 6.157 3.4 3.4 0 01-3.38-3.768c1.191-11.145 3.729-43.281-6.432-44.998 0 0-7.284-.82-8.51 13.065l-7.888-.275c-.003.002 4.098-28.067 21.451-24.28zm67.198 2.171c13.802 3.012 12.499 39.372 11.389 54.119-.26 3.47-3.15 6.166-6.629 6.166a3.395 3.395 0 01-3.382-3.762c1.191-11.145 3.728-43.319-6.432-45.035 0 0-7.288-1.062-8.515 12.752h-7.885c.002.002 4.102-28.027 21.454-24.24z" fill="#FF7B79"/></svg>