<svg width="193" height="222" viewBox="0 0 193 222" fill="none" xmlns="http://www.w3.org/2000/svg"><path d="M132.652 145.303c18.033 0 32.651-14.618 32.651-32.651S150.685 80 132.652 80 100 94.619 100 112.652s14.619 32.651 32.652 32.651z" fill="#303C60"/><path d="M132.652 144.217c17.433 0 31.565-14.132 31.565-31.565 0-17.434-14.132-31.566-31.565-31.566-17.434 0-31.566 14.132-31.566 31.566 0 17.433 14.132 31.565 31.566 31.565z" fill="#8969EA"/><path opacity=".78" d="M106.624 100.548a1.01 1.01 0 01-.903-1.464C110.881 88.855 121.2 82.5 132.652 82.5c1.824 0 3.654.164 5.438.488a1.012 1.012 0 01-.365 1.99 28.609 28.609 0 00-5.078-.457c-10.68 0-20.311 5.926-25.124 15.47a.994.994 0 01-.899.557z" fill="#fff"/><path opacity=".78" d="M159.621 118.03c2.633-14.519-7.003-28.422-21.522-31.055-14.519-2.632-28.423 7.004-31.055 21.523-2.632 14.519 7.003 28.423 21.522 31.055 14.519 2.632 28.423-7.004 31.055-21.523z" fill="#B9BFE6"/><path d="M130.717 133.2v-2.906c-3.029-.124-6.026-.835-8.157-1.771a1.678 1.678 0 01-.931-1.984l.739-2.706a1.694 1.694 0 012.3-1.108c2.112.885 4.717 1.588 7.532 1.588 2.92 0 5.096-.99 5.096-3.016 0-1.83-1.684-2.92-5.739-4.006-5.785-1.583-9.941-4.106-9.941-9.202 0-4.598 3.362-8.111 9.202-9.051v-2.906c0-.935.757-1.693 1.692-1.693h1.706c.936 0 1.693.758 1.693 1.693v2.61c2.806.114 4.845.593 6.465 1.158.83.292 1.282 1.186 1.053 2.035l-.679 2.505a1.687 1.687 0 01-2.231 1.14 17.603 17.603 0 00-6.342-1.149c-3.462 0-4.452 1.432-4.452 2.719 0 1.583 2.076 2.668 6.578 4.055 6.429 1.93 9.102 4.599 9.102 9.398 0 4.403-3.267 8.358-9.594 9.348v3.253c0 .935-.758 1.693-1.693 1.693h-1.706a1.7 1.7 0 01-1.693-1.697z" fill="#fff"/><path d="M169.267 61.534c12.85 0 23.267-10.417 23.267-23.267S182.117 15 169.267 15 146 25.417 146 38.267s10.417 23.267 23.267 23.267z" fill="#303C60"/><path d="M169.267 60.76c12.423 0 22.494-10.07 22.494-22.493 0-12.423-10.071-22.493-22.494-22.493s-22.493 10.07-22.493 22.493c0 12.423 10.07 22.494 22.493 22.494z" fill="#8969EA"/><path opacity=".78" d="M150.72 29.642a.72.72 0 01-.643-1.044c3.677-7.288 11.03-11.816 19.19-11.816 1.301 0 2.604.117 3.875.348a.72.72 0 11-.26 1.417 20.374 20.374 0 00-3.618-.325c-7.611 0-14.473 4.223-17.903 11.024a.709.709 0 01-.641.396z" fill="#fff"/><path opacity=".78" d="M188.485 42.1c1.876-10.346-4.99-20.254-15.336-22.13-10.346-1.875-20.254 4.991-22.13 15.337-1.875 10.346 4.991 20.254 15.337 22.13 10.346 1.876 20.254-4.99 22.129-15.337z" fill="#B9BFE6"/><path d="M167.889 52.91v-2.071c-2.159-.088-4.295-.595-5.813-1.262a1.196 1.196 0 01-.663-1.414l.527-1.928a1.206 1.206 0 011.638-.79c1.505.631 3.362 1.132 5.367 1.132 2.081 0 3.632-.706 3.632-2.15 0-1.303-1.2-2.08-4.09-2.853-4.122-1.129-7.084-2.926-7.084-6.558 0-3.277 2.396-5.78 6.557-6.45v-2.07c0-.667.54-1.207 1.206-1.207h1.216c.667 0 1.206.54 1.206 1.206v1.86c2 .081 3.453.423 4.607.826.592.208.914.845.751 1.45l-.484 1.785a1.203 1.203 0 01-1.59.812 12.544 12.544 0 00-4.519-.819c-2.468 0-3.173 1.02-3.173 1.938 0 1.128 1.479 1.901 4.688 2.89 4.581 1.375 6.486 3.277 6.486 6.697 0 3.137-2.328 5.955-6.837 6.66v2.319c0 .666-.54 1.206-1.206 1.206h-1.216a1.21 1.21 0 01-1.206-1.21z" fill="#fff"/><path d="M31.267 164.534c12.85 0 23.267-10.417 23.267-23.267S44.117 118 31.267 118 8 128.417 8 141.267s10.417 23.267 23.267 23.267z" fill="#303C60"/><path d="M31.267 163.761c12.423 0 22.494-10.071 22.494-22.494s-10.071-22.493-22.494-22.493-22.493 10.07-22.493 22.493c0 12.423 10.07 22.494 22.493 22.494z" fill="#8969EA"/><path opacity=".78" d="M12.72 132.642a.718.718 0 01-.644-1.043c3.678-7.289 11.031-11.817 19.191-11.817 1.3 0 2.604.117 3.875.347a.721.721 0 01-.26 1.418 20.338 20.338 0 00-3.618-.325c-7.61 0-14.473 4.223-17.903 11.024a.709.709 0 01-.64.396z" fill="#fff"/><path opacity=".78" d="M50.486 145.1c1.875-10.346-4.991-20.254-15.337-22.129-10.346-1.876-20.254 4.99-22.13 15.336-1.875 10.346 4.991 20.254 15.337 22.13 10.346 1.875 20.254-4.991 22.13-15.337z" fill="#B9BFE6"/><path d="M29.889 155.91v-2.071c-2.159-.088-4.295-.595-5.813-1.262a1.196 1.196 0 01-.663-1.414l.527-1.928a1.207 1.207 0 011.638-.79c1.505.631 3.362 1.132 5.367 1.132 2.081 0 3.632-.706 3.632-2.149 0-1.304-1.2-2.081-4.09-2.855-4.122-1.128-7.084-2.925-7.084-6.557 0-3.277 2.396-5.78 6.557-6.45v-2.071c0-.666.54-1.206 1.206-1.206h1.216c.667 0 1.206.54 1.206 1.206v1.86c2 .081 3.453.423 4.607.826.592.208.914.845.751 1.45l-.484 1.784a1.202 1.202 0 01-1.59.813 12.547 12.547 0 00-4.519-.819c-2.468 0-3.173 1.021-3.173 1.938 0 1.128 1.48 1.901 4.688 2.89 4.58 1.375 6.486 3.277 6.486 6.697 0 3.137-2.328 5.955-6.837 6.661v2.318c0 .666-.54 1.206-1.206 1.206h-1.216a1.21 1.21 0 01-1.206-1.209z" fill="#fff"/><path d="M91.267 221.534c12.85 0 23.267-10.417 23.267-23.267S104.117 175 91.267 175 68 185.417 68 198.267s10.417 23.267 23.267 23.267z" fill="#303C60"/><path d="M91.267 220.761c12.423 0 22.494-10.071 22.494-22.494s-10.071-22.493-22.494-22.493-22.493 10.07-22.493 22.493c0 12.423 10.07 22.494 22.493 22.494z" fill="#8969EA"/><path opacity=".78" d="M72.72 189.643a.718.718 0 01-.644-1.044c3.678-7.289 11.031-11.817 19.191-11.817 1.3 0 2.604.117 3.875.348a.72.72 0 01.579.838.718.718 0 01-.839.579 20.336 20.336 0 00-3.618-.325c-7.61 0-14.473 4.223-17.903 11.024a.71.71 0 01-.64.397z" fill="#fff"/><path opacity=".78" d="M110.486 202.1c1.875-10.346-4.991-20.254-15.337-22.129-10.346-1.876-20.254 4.99-22.13 15.336-1.875 10.346 4.991 20.254 15.337 22.13 10.346 1.875 20.254-4.991 22.13-15.337z" fill="#B9BFE6"/><path d="M89.889 212.91v-2.071c-2.159-.088-4.295-.595-5.813-1.262a1.196 1.196 0 01-.663-1.414l.526-1.928a1.207 1.207 0 011.639-.79c1.505.631 3.361 1.132 5.367 1.132 2.081 0 3.632-.706 3.632-2.149 0-1.304-1.2-2.081-4.09-2.854-4.122-1.129-7.084-2.926-7.084-6.558 0-3.277 2.396-5.78 6.557-6.45v-2.07c0-.667.54-1.207 1.206-1.207h1.216c.667 0 1.206.54 1.206 1.207v1.859c2 .081 3.453.423 4.607.826.592.208.914.845.751 1.45l-.484 1.785a1.202 1.202 0 01-1.59.812 12.548 12.548 0 00-4.519-.819c-2.468 0-3.173 1.021-3.173 1.938 0 1.128 1.48 1.901 4.688 2.89 4.58 1.375 6.486 3.277 6.486 6.697 0 3.137-2.328 5.956-6.837 6.661v2.318c0 .666-.54 1.206-1.206 1.206h-1.216a1.21 1.21 0 01-1.206-1.209z" fill="#fff"/><path d="M46.078 92.156c25.448 0 46.078-20.63 46.078-46.078C92.156 20.63 71.526 0 46.078 0 20.63 0 0 20.63 0 46.078c0 25.448 20.63 46.078 46.078 46.078z" fill="#303C60"/><path d="M46.078 90.624c24.602 0 44.546-19.944 44.546-44.546S70.68 1.532 46.078 1.532 1.532 21.476 1.532 46.078s19.944 44.546 44.546 44.546z" fill="#8969EA"/><path opacity=".78" d="M9.348 28.998a1.424 1.424 0 01-1.275-2.067C15.356 12.496 29.919 3.528 46.079 3.528c2.575 0 5.157.232 7.674.69a1.427 1.427 0 011.146 1.66c-.141.773-.888 1.3-1.66 1.146a40.355 40.355 0 00-7.166-.644C31 6.38 17.409 14.743 10.617 28.212a1.403 1.403 0 01-1.269.786z" fill="#fff"/><path opacity=".78" d="M84.138 53.669c3.715-20.49-9.884-40.11-30.373-43.825-20.489-3.715-40.11 9.883-43.825 30.372-3.714 20.49 9.884 40.11 30.373 43.825 20.49 3.715 40.11-9.883 43.825-30.372z" fill="#B9BFE6"/><path d="M43.348 75.076v-4.101c-4.274-.174-8.505-1.178-11.511-2.498-1.075-.47-1.623-1.674-1.314-2.8l1.044-3.819c.38-1.403 1.905-2.124 3.244-1.564 2.981 1.249 6.657 2.24 10.63 2.24 4.12 0 7.191-1.397 7.191-4.255 0-2.582-2.375-4.12-8.1-5.653-8.163-2.234-14.028-5.795-14.028-12.986 0-6.49 4.745-11.447 12.986-12.773v-4.102a2.388 2.388 0 012.389-2.388h2.407a2.388 2.388 0 012.389 2.389v3.682c3.96.161 6.837.837 9.123 1.635 1.172.413 1.81 1.674 1.487 2.872l-.96 3.534a2.381 2.381 0 01-3.147 1.61c-2.106-.798-5.08-1.622-8.95-1.622-4.886 0-6.283 2.021-6.283 3.837 0 2.234 2.93 3.766 9.284 5.723 9.071 2.724 12.844 6.49 12.844 13.263 0 6.213-4.61 11.795-13.54 13.192v4.59a2.388 2.388 0 01-2.388 2.389h-2.408a2.397 2.397 0 01-2.389-2.395z" fill="#fff"/></svg>