<svg width="203" height="367" viewBox="0 0 203 367" fill="none" xmlns="http://www.w3.org/2000/svg"><path d="M90.415 177.231c.305.433 1.604 2.504-.062 4.838a1.979 1.979 0 00-.221.367c-19.948 11.984-79.773 60.468-79.773 94.641v70.794h180.555v-70.822c0-34.391-60.642-83.644-80.15-94.98h-.003c-.627-.876-.831-1.714-.831-2.445 0-1.458.831-2.479.831-2.479 19.556-11.59 80.153-60.479 80.153-94.87v-70.79H10.356v70.821c0 34.336 60.445 83.485 80.06 94.925z" fill="#E8E0FF"/><path d="M0 366.109h202.707v-8.726c0-5.25-4.255-9.509-9.508-9.509H9.117A9.118 9.118 0 000 356.992v9.117z" fill="#2E5B9A"/><path d="M139.23 281.43c.924 15.845-2.088 50.024-1.815 66.441h53.499v-70.822c0-34.391-60.642-83.644-80.15-94.98h-.003c-.627-.876-.831-1.714-.831-2.445 0-1.458.831-2.479.831-2.479 19.556-11.59 80.153-60.479 80.153-94.87v-70.79h-35.792l-25.549 6.99V74.46s2.531 16.125-3.806 31.964c-6.336 15.838-19.937 66.652-19.725 73.252.211 6.6 31.605 74.592 33.188 101.754z" fill="#AEACE7"/><path d="M33.752 58.546c10.945.166 29.763 2.14 60.209 9.82 20.844 5.256 56.781 1.298 75.79-1.427 6.669-.956 12.635 4.214 12.635 10.953v8.157c0 22.484-60.49 71.186-76.486 83.669a9.974 9.974 0 00-3.84 7.867v125.022c0 4.27 2.105 8.245 5.602 10.693 12.579 8.805 33.777 34.571 33.777 34.571h-80.17s21.498-24.865 33.565-34.097a11.117 11.117 0 004.38-8.833V177.55c0-3.057-1.389-5.949-3.778-7.86-15.682-12.559-74.848-61.441-74.848-83.907v-14.27c0-7.24 5.924-13.075 13.164-12.967z" fill="#8969EA"/><path d="M9.456 18.476H193.59a9.118 9.118 0 009.117-9.117V.24H0v8.78c0 5.222 4.234 9.457 9.456 9.457z" fill="#2E5B9A"/></svg>