<svg fill="none" height="41" viewBox="0 0 40 41" width="40" xmlns="http://www.w3.org/2000/svg"><g clip-rule="evenodd" fill="#1e1e1e" fill-rule="evenodd"><path d="M20 2.002c-9.941 0-18 8.059-18 18s8.059 18 18 18 18-8.059 18-18-8.059-18-18-18zm-20 18c0-11.046 8.954-20 20-20s20 8.954 20 20-8.954 20-20 20-20-8.954-20-20z"/><path d="M20 5.756c-7.867 0-14.245 6.378-14.245 14.246 0 7.867 6.378 14.245 14.245 14.245 7.867 0 14.245-6.378 14.245-14.245 0-7.868-6.377-14.246-14.245-14.246zM3.755 20.002C3.755 11.03 11.028 3.756 20 3.756c8.972 0 16.245 7.274 16.245 16.246 0 8.972-7.273 16.245-16.245 16.245-8.972 0-16.245-7.273-16.245-16.245z"/><path d="M20 9.762a1 1 0 011 1v8.24h5.253a1 1 0 110 2H20a1 1 0 01-1-1v-9.24a1 1 0 011-1z"/></g></svg>