<svg fill="none" height="40" viewBox="0 0 40 40" width="40" xmlns="http://www.w3.org/2000/svg"><path d="M9 0C7.497 0 0 .148 0 3.102v33.796C0 39.852 7.497 40 9 40s9-.148 9-3.102V3.102C18 .148 10.503 0 9 0zm7.2 15.609c-.477.464-2.988 1.284-7.2 1.284s-6.723-.82-7.2-1.284v-2.025c2.313.997 6.165 1.067 7.2 1.067s4.887-.07 7.2-1.067zm0 4.228c-.477.464-2.988 1.284-7.2 1.284s-6.723-.82-7.2-1.284v-2.025c2.313.998 6.165 1.067 7.2 1.067s4.887-.07 7.2-1.067zm0 4.228c-.477.464-2.988 1.284-7.2 1.284s-6.723-.82-7.2-1.284V22.04c2.313.998 6.165 1.067 7.2 1.067s4.887-.07 7.2-1.067zm0 4.228c-.477.465-2.988 1.285-7.2 1.285s-6.723-.82-7.2-1.285v-2.025c2.313.998 6.165 1.067 7.2 1.067s4.887-.069 7.2-1.067zm0 4.229c-.477.464-2.988 1.284-7.2 1.284s-6.723-.82-7.2-1.284v-2.026c2.313.998 6.165 1.067 7.2 1.067s4.887-.069 7.2-1.067zM1.8 11.39V9.364c2.313.998 6.165 1.067 7.2 1.067s4.887-.069 7.2-1.067v2.025c-.477.465-2.988 1.285-7.2 1.285s-6.723-.82-7.2-1.285zm14.4-4.229c-.477.465-2.988 1.285-7.2 1.285s-6.723-.82-7.2-1.285V5.137c2.313.998 6.165 1.067 7.2 1.067s4.887-.07 7.2-1.067zM9 1.976c3.753 0 6.156.652 6.975 1.126-.819.474-3.222 1.126-6.975 1.126s-6.156-.652-6.975-1.126C2.844 2.628 5.247 1.976 9 1.976zm0 36.048c-4.194 0-6.705-.82-7.2-1.284v-2.035c2.313.998 6.165 1.067 7.2 1.067s4.887-.07 7.2-1.067v2.035c-.495.464-3.006 1.284-7.2 1.284zM31 18c-1.503 0-9 .141-9 2.955v16.09C22 39.86 29.497 40 31 40s9-.141 9-2.955v-16.09C40 18.14 32.503 18 31 18zm7.2 14.867c-.477.443-2.988 1.224-7.2 1.224s-6.723-.781-7.2-1.224v-1.929c2.313.95 6.165 1.017 7.2 1.017s4.887-.066 7.2-1.017zM23.8 28.85v-1.93c2.313.95 6.165 1.017 7.2 1.017s4.887-.066 7.2-1.017v1.93c-.477.442-2.988 1.223-7.2 1.223s-6.723-.781-7.2-1.224zm14.4-4.027c-.477.442-2.988 1.223-7.2 1.223s-6.723-.78-7.2-1.223v-1.929c2.313.95 6.165 1.016 7.2 1.016s4.887-.065 7.2-1.016zm-7.2-4.94c3.753 0 6.156.621 6.975 1.073-.819.451-3.222 1.072-6.975 1.072s-6.156-.62-6.975-1.072c.819-.452 3.222-1.073 6.975-1.073zM29.56 38.09h-.072a23.195 23.195 0 01-1.233-.085c-.036 0-.072 0-.108-.01a14.79 14.79 0 01-1.053-.131.506.506 0 01-.117-.019c-.315-.047-.612-.103-.882-.15-.036 0-.081-.02-.117-.02a17.662 17.662 0 01-.72-.169c-.036 0-.063-.018-.099-.028a8.312 8.312 0 01-.558-.179c-.027 0-.054-.018-.072-.028a3.684 3.684 0 01-.405-.17c-.018 0-.036-.018-.045-.027a1.274 1.274 0 01-.243-.16l-.009-.01v-1.929c2.313.95 6.165 1.016 7.2 1.016s4.887-.065 7.2-1.016v1.93l-.009.009a1.653 1.653 0 01-.243.16c-.018 0-.027.018-.045.028a3.065 3.065 0 01-.405.17c-.027 0-.054.018-.081.027a8.312 8.312 0 01-.558.18c-.036 0-.063.018-.099.027a17.61 17.61 0 01-.72.17c-.036 0-.081.019-.117.019-.27.056-.567.103-.882.15a.506.506 0 00-.117.019 25.82 25.82 0 01-1.053.132c-.036 0-.072 0-.108.01a24.21 24.21 0 01-1.233.084h-.072c-.459.019-.936.037-1.44.037s-.981-.009-1.44-.037z" fill="#1d1d1b"/></svg>