<svg fill="none" height="41" viewBox="0 0 40 41" width="40" xmlns="http://www.w3.org/2000/svg"><g clip-rule="evenodd" fill-rule="evenodd"><path d="M.732 1.037A2.988 2.988 0 000 3v34.004a3 3 0 003.001 3H37a3 3 0 003.001-3V3A3 3 0 0037 0H3A2.991 2.991 0 00.73 1.037zm37.267 5.515V3a1 1 0 00-1-1H3a1 1 0 00-1 1v3.552a1 1 0 001 1h34a1 1 0 001-1zM2.001 9.382c.313.11.65.17 1 .17H37c.35 0 .687-.06 1-.17v27.622a1 1 0 01-1 1H3a1 1 0 01-1-1z" fill="#1e1e1e"/><path d="M9.004 22.006a1.997 1.997 0 002.001-1.992 1.997 1.997 0 00-2-1.993c-1.11 0-2.002.895-2.002 1.993 0 1.097.893 1.993 2.001 1.993zm0 2c2.21 0 4.002-1.787 4.002-3.992s-1.792-3.993-4.002-3.993-4.002 1.787-4.002 3.993 1.792 3.993 4.002 3.993zm11.006-2c1.108 0 2-.895 2-1.992a1.997 1.997 0 00-2-1.993 1.997 1.997 0 00-2.002 1.993c0 1.097.893 1.993 2.001 1.993zm0 2c2.21 0 4.001-1.787 4.001-3.992S22.22 16.02 20.01 16.02s-4.002 1.787-4.002 3.993 1.792 3.993 4.002 3.993zm11.005-2a1.997 1.997 0 002-1.992 1.997 1.997 0 00-2-1.993 1.996 1.996 0 00-2.001 1.993c0 1.097.892 1.993 2 1.993zm0 2c2.21 0 4.001-1.787 4.001-3.992s-1.791-3.993-4.001-3.993c-2.21 0-4.002 1.787-4.002 3.993s1.791 3.993 4.002 3.993zM9.004 32.987c1.109 0 2.001-.896 2.001-1.993s-.892-1.993-2-1.993c-1.11 0-2.002.896-2.002 1.993s.893 1.993 2.001 1.993zm0 2c2.21 0 4.002-1.788 4.002-3.993s-1.792-3.993-4.002-3.993-4.002 1.788-4.002 3.993 1.792 3.993 4.002 3.993zm11.006-2c1.108 0 2-.896 2-1.993s-.892-1.993-2-1.993c-1.11 0-2.002.896-2.002 1.993s.893 1.993 2.001 1.993zm0 2c2.21 0 4.001-1.788 4.001-3.993s-1.791-3.993-4.002-3.993-4.002 1.788-4.002 3.993 1.792 3.993 4.002 3.993zm11.005-2c1.108 0 2-.896 2-1.993s-.892-1.993-2-1.993c-1.109 0-2.001.896-2.001 1.993s.892 1.993 2 1.993zm0 2c2.21 0 4.001-1.788 4.001-3.993s-1.791-3.993-4.001-3.993c-2.21 0-4.002 1.788-4.002 3.993s1.791 3.993 4.002 3.993z" fill="#000"/></g></svg>