<svg fill="none" height="41" viewBox="0 0 40 41" width="40" xmlns="http://www.w3.org/2000/svg"><g clip-rule="evenodd" fill="#1e1e1e" fill-rule="evenodd"><path d="M28.45 12.04a1 1 0 10-1.457-1.37L11.358 27.316a1 1 0 101.458 1.37zm-13.682-1.196c-1.564 0-2.937 1.37-2.937 3.192 0 1.823 1.373 3.192 2.937 3.192 1.563 0 2.937-1.369 2.937-3.192 0-1.823-1.374-3.192-2.937-3.192zM9.83 14.036c0-2.807 2.152-5.192 4.937-5.192 2.784 0 4.937 2.385 4.937 5.192 0 2.808-2.153 5.192-4.937 5.192-2.785 0-4.937-2.384-4.937-5.192zm15.212 8.091c-1.564 0-2.937 1.37-2.937 3.193s1.373 3.192 2.937 3.192c1.564 0 2.937-1.37 2.937-3.192 0-1.823-1.373-3.193-2.937-3.193zm-4.937 3.193c0-2.808 2.152-5.193 4.937-5.193s4.937 2.385 4.937 5.193-2.152 5.192-4.937 5.192-4.937-2.385-4.937-5.192z"/><path d="M36.744 14.343c.09.288.28.616.579 1.01.218.287.456.563.717.865l.327.38c.705.831 1.633 1.984 1.633 3.404s-.928 2.572-1.634 3.403l-.327.381c-.261.302-.5.578-.718.864-.3.395-.49.722-.58 1.011-.098.314-.13.716-.113 1.228.013.39.052.785.094 1.216l.042.443c.053.579.098 1.22.046 1.833-.052.616-.208 1.278-.612 1.863l-.005.007c-.8 1.149-2.227 1.507-3.25 1.743l-.434.099c-.398.09-.76.17-1.11.274-.464.138-.803.288-1.04.469-.234.178-.475.468-.746.893-.199.313-.381.644-.581 1.007l-.233.42c-.283.504-.61 1.056-1.006 1.529-.4.476-.916.929-1.6 1.16-.676.23-1.348.175-1.936.032-.581-.142-1.156-.39-1.665-.62a70.127 70.127 0 01-.365-.168c-.388-.18-.741-.343-1.097-.477-.459-.173-.827-.26-1.131-.26s-.673.087-1.131.26c-.356.134-.709.297-1.096.476l-.366.168c-.509.232-1.083.48-1.665.621-.588.143-1.26.199-1.937-.031-.684-.232-1.2-.685-1.6-1.161-.395-.472-.722-1.024-1.005-1.528l-.232-.419c-.2-.363-.383-.694-.582-1.008-.27-.424-.512-.716-.747-.895-.237-.18-.574-.33-1.039-.468a17.229 17.229 0 00-1.106-.273h-.001l-.437-.098c-1.023-.237-2.451-.595-3.252-1.746-.407-.586-.563-1.25-.616-1.868-.052-.613-.007-1.254.046-1.833l.042-.443c.043-.43.081-.826.094-1.216.018-.513-.016-.916-.113-1.23-.09-.288-.28-.615-.579-1.01a18.067 18.067 0 00-.717-.865l-.327-.38C.928 22.573 0 21.42 0 20.001c0-1.42.928-2.573 1.634-3.403.113-.134.222-.26.328-.383.261-.302.498-.577.717-.863.3-.395.49-.722.58-1.01.098-.315.13-.717.113-1.23-.013-.389-.052-.784-.094-1.215l-.042-.443c-.053-.579-.098-1.22-.046-1.833.052-.618.209-1.282.616-1.868l.011-.016C4.62 6.6 6.038 6.245 7.057 6.009l.435-.099c.398-.089.759-.17 1.109-.273.464-.138.802-.289 1.04-.47.234-.177.475-.468.746-.893.199-.313.381-.644.581-1.007l.233-.42c.283-.504.61-1.056 1.006-1.529.4-.476.916-.929 1.6-1.16.676-.23 1.348-.175 1.936-.032.581.142 1.156.39 1.665.62l.365.169c.388.179.741.342 1.097.476.459.174.827.26 1.131.26s.673-.086 1.131-.26c.356-.134.709-.297 1.096-.476l.366-.168c.509-.232 1.083-.48 1.665-.62.588-.144 1.26-.2 1.937.03.684.232 1.2.685 1.6 1.161.395.472.722 1.025 1.005 1.528l.23.417.002.002c.2.363.382.694.582 1.008.27.424.512.716.747.895.237.18.574.33 1.039.468.349.104.71.184 1.108.273a63 63 0 01.436.099c1.023.236 2.451.594 3.252 1.746.407.585.563 1.249.616 1.867.052.613.007 1.254-.046 1.833l-.042.443c-.043.43-.081.826-.094 1.216-.018.513.016.916.113 1.23zM15.269 2.069c-.375-.091-.63-.082-.82-.018-.214.073-.445.238-.71.552-.266.319-.517.73-.793 1.223-.057.1-.115.205-.174.313l-.026.046c-.209.38-.436.792-.672 1.163-.317.498-.71 1.022-1.223 1.412-.518.394-1.122.628-1.681.794-.422.125-.878.227-1.294.32a52.75 52.75 0 00-.369.084c-1.135.262-1.762.51-2.06.938l-.004.007c-.133.196-.225.476-.26.889-.036.423-.008.911.045 1.48.01.124.023.252.036.384.044.445.092.93.107 1.39.02.603-.008 1.265-.202 1.89-.192.616-.544 1.161-.899 1.628-.258.34-.558.686-.833 1.005l-.279.324C2.398 18.79 2 19.413 2 20.002c0 .588.397 1.212 1.158 2.108l.277.323c.276.32.576.666.834 1.007.355.467.706 1.011.897 1.628.194.625.223 1.286.202 1.89-.015.46-.063.944-.106 1.39l-.037.384c-.053.57-.081 1.058-.045 1.48.035.42.13.701.265.896.298.428.925.677 2.06.939l.364.082h.001l.004.001c.415.093.873.195 1.294.32.559.166 1.163.4 1.68.793.514.391.907.915 1.224 1.413.237.372.464.785.673 1.164l.199.359c.276.492.527.903.793 1.221.264.315.495.48.71.552.19.065.445.073.82-.018.383-.093.808-.27 1.31-.498l.315-.145c.399-.184.84-.388 1.269-.55.552-.209 1.182-.389 1.838-.389.655 0 1.285.18 1.838.389.43.162.87.366 1.27.55l.04.02.274.125c.503.229.928.405 1.31.498.375.091.63.082.82.018.214-.073.446-.237.71-.552.266-.319.517-.73.793-1.223.065-.114.131-.235.2-.36.209-.378.436-.791.672-1.162.317-.498.71-1.022 1.223-1.412.518-.393 1.122-.627 1.681-.793a19.91 19.91 0 011.293-.32l.37-.084c1.132-.262 1.759-.51 2.057-.935l.002-.002c.136-.196.23-.478.265-.897.036-.424.008-.912-.045-1.481a58.34 58.34 0 00-.036-.385 22.21 22.21 0 01-.107-1.389c-.02-.603.008-1.264.202-1.89.192-.616.544-1.16.899-1.628.258-.34.558-.686.833-1.005l.279-.324c.76-.896 1.158-1.52 1.158-2.108s-.397-1.212-1.158-2.109a54.116 54.116 0 00-.277-.323c-.276-.32-.576-.666-.834-1.007-.355-.466-.706-1.011-.897-1.628-.194-.625-.223-1.286-.202-1.89.015-.46.063-.944.106-1.39l.037-.383c.053-.57.081-1.058.045-1.482-.035-.419-.13-.7-.265-.895-.298-.428-.925-.676-2.06-.938l-.322-.073-.048-.01a19.864 19.864 0 01-1.293-.32c-.559-.166-1.163-.4-1.68-.794-.514-.39-.907-.915-1.224-1.413-.237-.372-.464-.785-.673-1.164l-.001-.001V4.18c-.068-.123-.134-.243-.198-.356-.276-.493-.527-.904-.793-1.222-.264-.315-.495-.48-.71-.552-.19-.064-.445-.073-.82.018-.383.093-.808.27-1.31.498l-.315.145c-.399.184-.84.388-1.269.55-.552.209-1.182.39-1.838.39-.655 0-1.285-.181-1.838-.39-.43-.162-.87-.366-1.27-.55l-.04-.02a51.31 51.31 0 00-.274-.125c-.502-.229-.928-.405-1.31-.498z"/></g></svg>