<svg width="422" height="364" viewBox="0 0 422 364" fill="none" xmlns="http://www.w3.org/2000/svg"><path d="M84.852 234.73c40.921-41.28 12.558-101.959 52.442-145.861C263.717-50.291 511.85 155.316 314.376 275.58 182.789 355.72-9.621 330.031 84.852 234.73z" fill="#E8E0FF"/><path d="M224.969 279.662s-.761 12.313-3.144 12.49c-.318.024-12.08.024-12.08.024l-15.017-.087s.097-3.618 4.487-4.383c4.391-.766 11.738-3.851 14.397-9.654 2.795-6.105 11.357 1.61 11.357 1.61zm34.549-35.174s10.377 6.669 9.37 8.834c-.136.287-5.869 10.561-5.869 10.561l-7.396 13.071s-3.113-1.849-1.641-6.056c1.471-4.207 2.361-12.126-1.41-17.275-3.964-5.419 6.946-9.135 6.946-9.135z" fill="#8969EA"/><path fill-rule="evenodd" clip-rule="evenodd" d="M262.987 62.056c-1.475.189-2.458.214-2.458.214-4.224-.156-6.745-17.023-6.063-20.42.682-3.397 2.531-7.327 12.891-7.164 8.779.138 8.816 5.072 8.873 12.71.011 1.376.022 2.84.085 4.378.058 1.426-.216 2.658-.729 3.723l.05.204c2.344 9.335 8.667 13.584 8.667 13.584s-16.288 9.103-26.111 6.562c0 0 2.22-3.165 6.246-5.662-.214-.959-.401-1.856-.564-2.683a81.672 81.672 0 01-.887-5.446z" fill="#F09959"/><path d="M226.271 146.932s-5.602.644-9.941.384c-5.425-.326-12.111-.461-13.354.983-1.24 1.444-1.24 1.444 1.167 2.718 1.876.991 9.113 4.18 13.998 2.67 4.889-1.513 11.129-1.205 11.129-1.205l-2.999-5.55z" fill="#F09959"/><path d="M286.093 93.555s-10.44 51.711-22.866 55.658c-6.132 1.95-32.936 5.596-40.802 5.655 0 0-1.828-1.673-.984-7.982 0 0 28.362-8.538 32.634-13.847 6.361-7.898-1.638-33.91 6.188-41.22 7.825-7.309 20.425-9.899 25.83 1.736z" fill="#8969EA"/><path d="M281.131 286.258h-1.507a2.75 2.75 0 01-2.742-2.742v-83.467a2.751 2.751 0 012.742-2.743h1.507a2.751 2.751 0 012.742 2.743v83.467a2.748 2.748 0 01-2.742 2.742z" fill="#AEACE7"/><path d="M311.743 292.106c-3.29-6.804-16.084-11.88-31.367-11.88-15.283 0-28.077 5.076-31.367 11.88h62.734zm-8.355-23.075h-46.027a.88.88 0 01-.88-.879v-1.825c0-.485.395-.88.88-.88h46.027c.484 0 .879.395.879.88v1.825a.88.88 0 01-.879.879z" fill="#AEACE7"/><path d="M284.448 189.197c-2.144 3.635-4.623 7.046-7.181 10.273-7.898 9.973-16.499 18.197-17.995 25.967-.298 1.548-.772 3.217-1.388 4.976a64.734 64.734 0 01-2.293 5.588c-3.351 7.282-8.365 15.44-13.368 22.857-8.653 12.822-16.79 23.519-16.79 23.519l-14.92-.638c.599-1.495 7.105-19.196 15.81-40.831 3.535-8.781 7.296-18.124 10.921-27.133.485-1.202.966-2.4 1.444-3.588 1.108-2.756 2.198-5.471 3.265-8.113l14.684-36.489s32.672-12.376 36.062-4.356c2.801 6.61.523 13.089-8.251 27.968z" fill="#E35B52"/><path d="M244.903 160.076s-44.223 31.766-49.049 41.746c-3.771 7.794 56.32 57.334 56.32 57.334s8.753-8.67 9.896-12.867c0 0-20.699-29.748-37.1-39.405-4.883-2.874 58.55-9.896 65.416-20.579 6.866-10.682 3.082-24.827 3.082-24.827l-48.565-1.402z" fill="#FF7B79"/><path d="M316.123 206.856h-71.019c-5.229 0-9.505-4.276-9.505-9.508v-1.534c0-5.229 4.276-9.509 9.505-9.509h71.019c5.228 0 9.507 4.277 9.507 9.509v1.534c0 5.232-4.279 9.508-9.507 9.508z" fill="#2E5B9A"/><path d="M244.238 158.344c.021.101.052.201.087.305.945 2.656 15.245 11.672 24.902 15.253 6.028 2.237 26.941 7.23 28.319 2.929 1.597-4.986-4.248-41.333-2.839-60.26 1.659-23.138-4.747-44.198-13.652-51.071-.672-.495-2.005.82-5.862 2.652-3.563 1.69-7.5 2.171-10.834 1.44l-2.985 2.567c-4.131 3.712-8.667 8.781-10.723 16.548-1.257 4.764-2.209 12.309-2.916 20.786a444.76 444.76 0 00-.713 10.173c-.315 5.513-.596 11.074-.731 16.358-.003.1-.007.201-.007.305l-.003.19a17.465 17.465 0 00-.069 1.648c-.018.533-.031 1.067-.045 1.593-.097 4.138-.09 7.978-.236 11.299-.072 1.665-.408 2.86-.765 3.809-.363.969-.751 1.679-.911 2.361a2.479 2.479 0 00-.017 1.115z" fill="#8969EA"/><path d="M262.765 59.901s.17 2.79 1.108 7.59c7.327-2.368 10.651-8.986 11.763-11.794.315-.793.453-1.284.453-1.284s-.284-.063-.775-.166l-5.045-1.07-7.504 6.724z" fill="#ED975D"/><path d="M202.557 149.052l-1.41.458-11.988-36.901 1.409-.458 11.989 36.901z" fill="#1C468A"/><path d="M241.841 148.632l-40.707.872-.052-2.434 40.707-.871.052 2.433z" fill="#1C468A"/><path d="M278.326 33.03c.1-.169.377-.338 1.025-.49 0 0-.582-.236-1.288-.129-.298-.89-1.07-2.417-2.711-2.531 0 0 .924.301 1.205 1.25-2.151-1.544-6.288-2.213-16.932.55-14.023 3.647-7.721 11.922-5.689 12.68 2.036.759 6.143-3.04 9.623-3.375 3.479-.336 5.01 4.505 6.294 4.979 1.285.474.613-.648 2.064-1.638 1.447-.99 2.06 1.593 1.908 3.37-.153 1.776 2.406 3.632 2.406 3.632l1.77-2.743c1.769-2.742 2.06-13.082.689-15.035l-.364-.52z" fill="#303C60"/><path d="M245.166 154.868c3.934-.637 13.646-2.583 20.699-6.998 12.728-7.968 20.228-48.408 20.228-48.408l-19.937 25.534-19.965 14.612-.028.149c-.096 4.138-.09 7.978-.235 11.299-.073 1.669-.405 2.86-.762 3.812z" fill="#7C5DDD"/><path d="M226.213 136.121s-1.413.471-3.065 0c-1.648-.471-7.305-1.884-8.247-1.413-.942.471-3.889 2.829-4.595 3.3-.706.471-1.766 2.476-1.766 2.476.651.474 2.41-1.143 3.296-1.261.883-.117 7.957 2.379 9.903 2.144 1.943-.236 4.889-1.119 4.889-1.119l-.415-4.127z" fill="#F09959"/><path d="M214.482 138.313c0 .107-1.932 3.12-3.864 2.576l1.655-2.265 2.209-.311zm8.67-2.192s-2.434-1.617-3.286-2.445c0 0-.391.26-.35.62.07.603.828 1.6.828 1.6l2.808.225z" fill="#F09959"/><path d="M265.837 79.313c10.481-8.965 26.208 1.18 22.437 14.45-4.373 15.38-12.815 40.755-21.498 43.22-6.188 1.756-33.091 4.571-40.958 4.384 0 0-1.458.557-.419-5.727 0 0 29.5-9.114 32.734-15.111 1.731-3.214-.585-33.948 7.462-41.008.083-.066.163-.139.242-.208z" fill="#8969EA"/></svg>