<svg width="380" height="235" viewBox="0 0 380 235" fill="none" xmlns="http://www.w3.org/2000/svg"><path d="M44.623 41.07l7.56 23.978s8.77 6.466 19.956.294c1.719-.942 3.496-2.179 5.298-3.793C91.013 49.43 82.005 31.8 82.005 31.8s10.362-4.18 5.757-12.978c-.317-.601-1.201-.507-1.39.152-.671 2.426-2.308 6.666-5.735 8.173-.176.071-.34.153-.493.224-.153-.46-.153-1 .212-1.578 1.072-1.625-.859-3.85-.859-3.85s-.129 1.966-1.613 3.19c-1.284 1.072-1.895 3.428-1.024 5.371 1.86 7.209 4.639 16.736-6.182 23.708a9.011 9.011 0 01-3.437 1.33C56.904 57.274 44.623 41.07 44.623 41.07z" fill="#F09959"/><path d="M44.623 41.07l7.56 23.978s8.77 6.466 19.956.294l-4.898-9.798c-10.337 1.73-22.618-14.475-22.618-14.475z" fill="#FF7B79"/><path d="M42.358 11.662S46.638-3.25 30.623.851c0 0-7.846-1.094-8.07 6.294 0 0-3.39 5.112-3.534 11.412 0 0-15.418 3.987-17.851 10.166-2.49 6.325-1.109 16.371 5.221 18.106 0 0-5.033 2.678-2.486 8.396 2.547 5.718 14.852 9.504 21.898 2.31 0 0 20.585 2.23 19.833-12.26 0 0 9.4-6.39-.907-18.136-10.306-11.747-2.37-15.479-2.37-15.479z" fill="#E35B52"/><path d="M43.61 38.432c-3.236-.97-12.66-2.763-21.623 5.511a5.553 5.553 0 00-1.6 5.533c2.408 8.865 8.76 35.06 3.19 46.392 0 0 9.815 10.822 20.523 2.1 0 0 4.804-20.945 11.097-30.14 4.344-6.348-6.928-23.838-9.78-28.063a3.337 3.337 0 00-1.807-1.333z" fill="#CFC4EE"/><path d="M34.675 20.817S29.89 34.36 29.528 40.334c0 0 5.29 2.406 10.276-1.656 0 0 .523-13.526 1.279-15.949l-6.408-1.912z" fill="#F09959"/><path d="M42.35 7.439s12.927 17.226 5.565 22.49c-7.362 5.265-16.565-6.975-16.565-6.975s-3.13-9.52-.17-12.845c2.962-3.325 11.17-2.67 11.17-2.67z" fill="#F09959"/><path d="M36.458 3.389s5.782 1.228 6.649 3.81c.867 2.584-8.036 5.208-10.543 5.384l-1.776 10.549s-6.212-9.739-3.977-15.499c2.233-5.76 9.647-4.244 9.647-4.244z" fill="#E35B52"/><path d="M33.747 21.608s-5.004-5.528-6.856-1.804c-1.852 3.725 4.537 6.337 6.683 4.48l.173-2.676zM56.6 141.943c-.035.951 1.633 8.492 2.54 12.515a6.625 6.625 0 01-.712 4.753l-31.455 52.957a7.23 7.23 0 00-.825 2.061c-.577 2.485-1.772 8.575-1.148 14.116l1.628 3.38-7.038-1.598-1.531-18.905 1.992-1.216a9.466 9.466 0 003.829-4.483c2.843-6.911 9.907-24.503 11.727-33.077 2.07-9.744 12.886-17.658 12.886-17.658l-1.9-4.494 10.008-8.351z" fill="#F09959"/><path d="M11.766 223.621s3.801-6.026 4.248-8.372c.447-2.347 1.692-6.489 4.035-5.243 0 0 1.105 11.397.724 15.85-.38 4.452 5.033 4.31 5.033 4.31s1.493.209 2.585 1.301c.755.755.215 2.064-.85 2.132-1.772.113-4.585.144-7.54-.428a2.307 2.307 0 01-1.86-2.128l-.78-13.118-4.795 6.055-.8-.359z" fill="#303C60"/><path d="M37.809 150.378s-1.11 47.37-1.26 54.097c-.15 6.727 1.063 21.637 7.805 26.093l-2.934 2.173s-3.667-3.117-7.248-9.117c-4.025-6.739-5.241-7.97-5.241-7.97l1.334-2.735a6.023 6.023 0 00.487-3.858c-1.455-7.053-6.316-30.515-7.641-35.569-1.565-5.964-1.677-13.929 3.77-20.596 5.444-6.667 10.928-2.518 10.928-2.518z" fill="#FFA461"/><path d="M31.583 234.877a.413.413 0 01-.416-.355c-.225-1.58-1.159-7.911-1.923-9.55-.875-1.878-3.736-9.78.001-10.45 0 0 9.29 13.578 11.075 15.408 1.784 1.83 4.034.64 4.034.64s1.738.513 3.048 2.188c.624.796.043 1.968-.97 1.977l-6.258.06a4.406 4.406 0 01-4.128-2.775c-1.102-2.752-2.994-6.79-5.2-8.58l1.146 10.976a.416.416 0 01-.41.461z" fill="#303C60"/><path d="M45.582 92.861s-1.41 4.496.756 11.902l13.44 46.943c.21.739-.188 1.51-.91 1.77-4.02 1.443-17.235 5.522-35.274 4.278a2.05 2.05 0 01-1.867-1.595c-1.19-5.352-5.244-23.611-6.08-27.364-3.18-14.296-6.733-29.713 8.896-39.035 7.202 3.086 13.92 4.905 21.039 3.101z" fill="#8969EA"/><path d="M2.136 74.711s-.103.007-.103-.005c1.694-1.331 10.685-1.38 10.685-1.38s6.53-9.458 8.742-11.804l.206-.206c.048-.048.097-.097.169-.157.81-.749 1.669-1.5 2.6-2.274a8.137 8.137 0 002.345-3.205c3.459-8.708.726-14.404-5.561-10.752 0 0-13.289 11.042-18.45 26.693-.06.194-.109.375-.171.556-.206.726-.41 1.416-.591 2.057-.013.048.039.118.028.165-.04.11.137.204.1.312z" fill="#CFC4EE"/><path d="M35 80.395s-15.443 8.73-20.655 1.275c-1.082-1.549-1.895-6.877-1.629-8.344-4.629-2.338-8.112 1.1-10.712.908-.682 3.573-1.013 7.052 1.086 10.893 9.128 16.701 33.952-.923 33.952-.923L35 80.394z" fill="#F09959"/><path d="M33.144 91.44l8.428-29.442a.856.856 0 01.726-.617c1.527-.178 5.951-.679 11.06-1.112 6.154-.52 13.301-.942 17.572-.584a.86.86 0 01.703 1.239c-2.43 4.915-12.417 24.905-17.421 31.455a.863.863 0 01-.695.341l-19.556-.182a.86.86 0 01-.817-1.097z" fill="#303C60"/><path fill-rule="evenodd" clip-rule="evenodd" d="M60.345 56.697l-6.111 1.019a.44.44 0 00-.355.332l-.338 1.443-2.845.289a.604.604 0 00-.534.488l-.503 2.623a.606.606 0 00.625.72l12.061-.608a.604.604 0 00.56-.463l.784-3.268a.607.607 0 00-.65-.745l-2.712.275.506-1.534a.438.438 0 00-.488-.57z" fill="#8969EA"/><path d="M35.18 84.326s-1.173-4.829-.7-6.542c.473-1.714 1.39-3.916 4.45-3.427 3.059.49 6.667 1.78 6.667 1.78s-.182 2.23-2.507 1.51l1.441 1.116s-.206 1.787-2.17.833l1.342 1.48s-.843 1.467-2.287.525c-1.446-.94-2.14 3.307-6.236 2.725z" fill="#F09959"/><path fill-rule="evenodd" clip-rule="evenodd" d="M309.992 224.826c4.348.376 11.895.987 17.845 1.249 3.576.158 5.636-.193 6.821-.667.029-1.944-.353-5.563-2.988-9.364h-3.833s-13.569 3.536-17.845 8.782zm17.845 1.25c-5.949-.262-13.495-.872-17.844-1.249a7.238 7.238 0 00-.596.829c-.335.562.057 1.277.715 1.317 3.182.194 12.123.603 23.365-.024a1.232 1.232 0 001.17-1.163c.005-.118.009-.244.011-.377-1.186.474-3.245.824-6.821.667z" fill="#8969EA"/><path d="M332.315 209.786l-.36 7.099a1.62 1.62 0 01-1.384 1.525 6.313 6.313 0 01-2.879-.239 1.919 1.919 0 01-1.288-1.475l-1.239-6.91h7.15z" fill="url(#paint0_linear_6_356)"/><path d="M376.795 233.016c1.886-.34 2.739-1.607 3.097-2.96l.007.036c.277 1.428-.366 2.908-1.652 3.612-1.554.851-3.254.996-4.573.926-1.415-.075-2.715-.833-3.428-2.044l-.011-.019c1.422.909 3.416 1.016 6.56.449z" fill="#8969EA"/><path d="M367.905 211.972h3.16c4.813-.127 7.838 13 8.827 18.084-.358 1.354-1.211 2.62-3.097 2.96-3.144.567-5.138.459-6.56-.448-2.601-4.426-3.89-10.906-4.51-14.687-.704-4.302 2.18-5.909 2.18-5.909z" fill="#8969EA"/><path d="M370.658 205.384l1.755 6.983a1.896 1.896 0 01-.986 2.148c-.982.503-2.364 1.033-3.635.879a1.581 1.581 0 01-1.291-1.056l-2.576-7.346 6.733-1.608z" fill="url(#paint1_linear_6_356)"/><path d="M308.922 113.424s15.684 98.063 15.424 98.603c0 0 4.333 1.969 9.055.251 0 0-1.418-52.422-4.742-72.522 0 0 26.767 46.855 35.267 70.202 0 0 4.434-.529 8.103-2.945 0 0-28.82-84.336-36.51-95.569l-26.597 1.98z" fill="#09005D"/><path d="M236.951 17.4s10.583 2.336 17.02 5.308a5.87 5.87 0 012.879 2.895c1.925 4.218 7.685 14.796 18.855 19.844-1.609 2.136-4.199 6.578-5.327 14.044-6.708-4.993-12.5-13.336-15.282-27.015 0 0-2.117 1.151-4.758-.132-1.395-.679-3.007-1.64-4.216-2.396-1.205-.754-2.103-1.925-2.451-3.293-.461-1.807-.189-3.396-.189-5.1l-5.439-1.686c-.003 0-1.638-.616-1.092-2.468z" fill="#F09959"/><path d="M270.377 59.492c1.128-7.467 3.718-11.91 5.327-14.045 6.939 3.136 15.966 4.138 27.459.154a12.168 12.168 0 013.285-.648c6.119-.36 26.283-1.014 42.967 4.5a12.974 12.974 0 017.822 7.122c4.514 10.36 11.82 33.955-8.465 45.868a50.288 50.288 0 00-4.896-9.268c3.267-5.512 4.234-13.04-1.563-22.843-4.227 11.417-6.211 28.077-6.624 35.449a15.857 15.857 0 001.241 7.091l.104.244a.84.84 0 01-.589 1.147c-11.42 2.565-23.298 1.869-26.846 1.574a1.464 1.464 0 01-1.306-1.118c-5.553-23.405-5.565-39.371-4.206-49.465-5.194 1.163-21.078 3.641-33.71-5.763z" fill="#8969EA"/><path d="M332.248 31.319s1.156 12.218 2.173 15.832a1.236 1.236 0 01-.582 1.412c-1.725.986-5.866 2.596-11.53-.18a2.572 2.572 0 01-1.427-2.42l.5-11.807 10.866-2.837z" fill="#F09959"/><path d="M321.132 15.687s-3.696 8.49-3.944 12.947c-.248 4.455-1.208 7.349 3.944 8.245 5.151.898 9.492-1.67 11.842-6.108 0 0 3.683-6.84 2.857-9.642-.826-2.8-14.699-5.442-14.699-5.442z" fill="#F09959"/><path d="M331.213 27.58l-.292-.129a.708.708 0 01-.346-.971c.727-1.404 2.143-4.62.314-5.372-2.359-.967-11.698-2.872-13.712-6.187-1.937-3.186-.22-7.297 2.358-8.467a.356.356 0 01.465.151l.215.407a.35.35 0 00.645-.067.348.348 0 01.63-.09c.619.992 2.292 2.599 6.763 3.425 6.355 1.172 10.557 3.745 10.661 8.138a.35.35 0 00.542.288c.469-.285 1.221-.42 2.224.424 1.745 1.468 1.031 5.276-2.795 8.409-.182.148-.181.433.016.56.694.451 1.728 1.527-.951 2.959-2.772 1.482-4.84 1.36-5.638 1.228a.35.35 0 01-.283-.42l.85-3.861a.35.35 0 00-.341-.426h-1.325v.001z" fill="#303C60"/><path d="M331.054 28.395s1.409-5.424 3.841-3.904c2.43 1.521-1.261 6.077-3.216 6.28l-.625-2.376z" fill="#F09959"/><path d="M252.273 31.215a.463.463 0 00.358-.756c-.399-.493-3.952-4.837-5.32-5.61-.498-.281-.795-.571-.857-.839-.031-.128-.01-.272.062-.436l4.173.837 2.364 2.029a.463.463 0 10.603-.704l-2.455-2.108a.462.462 0 00-.211-.102l-4.619-.926a.461.461 0 00-.476.196c-.339.502-.451.97-.343 1.428.128.54.554 1.01 1.304 1.434 1.029.582 4 4.086 5.057 5.387a.47.47 0 00.36.17z" fill="url(#paint2_linear_6_356)"/><path d="M331.233 108.315l-16.334.203 5.717-5.383c1.421-1.337 3.59-1.554 5.23-.489.96.623 2.002 1.469 2.903 2.589 0 0 10.19-3.725 15.128-12.057a50.199 50.199 0 014.896 9.268c-4.428 2.597-10.167 4.641-17.54 5.869z" fill="#F09959"/><path d="M329.474 110.422l-.096.003-41.461-.045a1.845 1.845 0 01-1.853-1.838 1.837 1.837 0 011.857-1.835l41.461.044a1.846 1.846 0 011.853 1.839 1.843 1.843 0 01-1.761 1.832z" fill="#303C60"/><path d="M250.646 73.166h34.529a6.585 6.585 0 015.952 3.736l15.963 33.499h-42.909a3.998 3.998 0 01-3.719-2.504l-12.378-30.998c-.717-1.793.617-3.733 2.562-3.733z" fill="#303C60"/><path d="M274.971 90.343c.748 2.3.196 4.535-1.234 4.991-1.43.455-3.196-1.04-3.944-3.341-.748-2.301-.196-4.535 1.235-4.992 1.43-.456 3.196 1.041 3.943 3.342z" fill="#8969EA"/><defs><linearGradient id="paint0_linear_6_356" x1="332.315" y1="214.132" x2="325.165" y2="214.132" gradientUnits="userSpaceOnUse"><stop stop-color="#FEBBBA"/><stop offset="1" stop-color="#FF928E"/></linearGradient><linearGradient id="paint1_linear_6_356" x1="372.471" y1="210.402" x2="363.926" y2="210.402" gradientUnits="userSpaceOnUse"><stop stop-color="#FEBBBA"/><stop offset="1" stop-color="#FF928E"/></linearGradient><linearGradient id="paint2_linear_6_356" x1="245.514" y1="26.902" x2="253.819" y2="26.902" gradientUnits="userSpaceOnUse"><stop stop-color="#FF928E"/><stop offset="1" stop-color="#FE7062"/></linearGradient></defs></svg>