<svg width="490" height="399" viewBox="0 0 490 399" fill="none" xmlns="http://www.w3.org/2000/svg"><path d="M258.102 46.121C210.96 105.291 84.806 98.455 32.334 157.53-133.987 344.78 391.14 529.065 478.208 273.744 536.229 103.61 366.933-90.481 258.102 46.121z" fill="#E8E0FF"/><path d="M399.45 128.407s25.877 14.335 28.017 38.591c2.141 24.256.179 124.945-51.708 149.726-51.887 24.781-120.567 19.071-146.853 16.359-26.287-2.711-40.864-20.576-44.123-32.874-3.254-12.304-8.515-58.123 19.139-72.907 27.654-14.779 56.704-37.426 85.725-59.479 29.027-22.047 78.769-58.042 109.803-39.416z" fill="#2E5B9A"/><path d="M290.732 218.776h-7.009a17.896 17.896 0 01-12.869-5.446c-11.606-11.981-40.622-40.177-63.557-47.947-3.732-1.263-7.805.531-9.478 4.095-4.787 10.216-11.502 33.988 4.402 69.966 1.765 3.986 6.76 5.682 10.389 3.259a5.828 5.828 0 002.232-2.728l-1.748-42.052s38.586 33.745 45.289 40.258c6.702 6.512 40.794 2.544 32.349-19.405z" fill="#E35B52"/><path fill-rule="evenodd" clip-rule="evenodd" d="M210.994 236.861c-15.215 3.947-25.045 12.04-30.989 18.879-5.726 6.591 1.443 8.514 8.289 6.653 7.045-1.906 15.102-7.492 20.272-11.517 5.401-6.058 8.083-11.468 8.083-11.468l-5.655-2.547zm-33.183 73.616c-15.599 1.934-26.398 8.68-33.181 14.688-6.535 5.79.323 8.629 7.353 7.675 7.233-.974 15.948-5.465 21.597-8.783 6.144-5.304 9.507-10.32 9.507-10.32l-5.276-3.26z" fill="#8969EA"/><path d="M290.19 229.436l-69.014.75s-39.41 32.609-46.557 82.327c0 0-1.188 3.657 5.936 4.28 0 0 23.829-15.563 39.364-43.078 19.047-33.734 56.79-18.552 56.79-18.552 12.402-8.941 29.921-10.758 43.125-13.74l-29.644-11.987z" fill="#FF7B79"/><path d="M284.577 228.83s8.451-22.964 10.262-45.276c0 0-6.178-5.313-10.043-7.603a2.792 2.792 0 01-1.09-3.623c2.838-5.884 20.017-28.986 21.303-29.309 6.991-1.748 35.672-15.385 55.873 12.246 8.67 11.86-1.719 48.363-41.048 86.164l-8.116 1.551-27.141-14.15z" fill="#8969EA"/><path d="M330.829 123.521l5.134 17.127a1.891 1.891 0 01-.733 2.1c-2.475 1.696-8.935 5.059-17.802 1.788a2.785 2.785 0 01-1.793-2.4l-1.218-14.923 16.412-3.692z" fill="#F09959"/><path d="M300.752 109.654s2.526 17.755 9.345 23.218c6.818 5.462 20.109 1.35 24.596-12.039l-8.941-22.89-25 11.711z" fill="#F09959"/><path d="M326.762 112.757a.878.878 0 01-1.142-.703c-.248-1.639-.86-4.881-2.106-7.09 0 0 .652-2.33-5.889 1.188-6.536 3.519-16.36 8.688-22.14 5.613-5.635-2.999-11.346-18.107 3.554-15.31.565.104 1.09-.346 1.044-.922-.185-2.48.063-8.192 5.849-10.026 5.411-1.713 8.376.727 9.599 2.204a.871.871 0 001.367-.023c1.621-2.118 6.022-6.623 12.506-3.767 5.341 2.353 6.166 5.641 6.08 7.69a.879.879 0 001.252.835c1.632-.755 4.263-1.142 6.783 2.014 3.485 4.366-1.494 8.151-2.988 9.143a.88.88 0 00-.398.727c-.011 2.267-.369 12.171-5.33 17.755-.427.484-1.223.34-1.477-.254l-3.818-9.103a.88.88 0 00-1.085-.496l-1.661.525z" fill="#303C60"/><path d="M326.681 114.603s2.331-9.501 5.878-6.415c3.542 3.087-.923 9.876-4.984 11.168l-.894-4.753z" fill="url(#paint0_linear_3_352)"/><path d="M285.396 173.643s-11.335 32.644-33.422 7.799l-2.106-.934-15.834-10.822 1.765 6.265a11.72 11.72 0 006.818 7.66l2.089.86c3.968 8.249 12.477 20.749 25.571 23.126 19.659 3.559 29.737-22.999 29.737-22.999l-14.618-10.955z" fill="#F09959"/><path d="M226.143 161.351l-1.114 1.523a1.62 1.62 0 00.393 2.295l24.942 17.04a1.62 1.62 0 001.91-2.618l-23.83-18.563a1.613 1.613 0 00-2.301.323z" fill="url(#paint1_linear_3_352)"/><path d="M248.657 177.081c-.312-.277 19.272-9.864 26.65-8.987 7.182.854 15.633 6.224 23.507 12.581 7.095 5.728 14.386 9.42 21.233 9.137 0 0 11.71 12.737 9.114 20.421 0 0-13.007 3.074-24.106-7.892-10.556-10.423-22.214-23.708-28.773-26.131a1.86 1.86 0 00-1.65.185c-1.973 1.257-8.122 4.269-16.175-.548.006 0-6.541 4.078-9.8 1.234z" fill="#F09959"/><path d="M254.466 132.751c.605 4.58 1.874 13.394 3.345 18.874a3.19 3.19 0 002.85 2.348c4.298.317 13.896.704 19.492-1.5 1.263-.496 2.053-1.759 1.99-3.121-.196-4.239-.739-14.092-1.835-19.982a3.191 3.191 0 00-3.443-2.595c-4.546.421-13.683 1.338-19.769 2.399a3.202 3.202 0 00-2.63 3.577z" fill="#FF7B79"/><path d="M241.377 139.258l.548 3.703c.127.836.9 1.413 1.736 1.298l4.344-.6a1.543 1.543 0 001.321-1.667l-.277-3.104a1.537 1.537 0 00-1.534-1.401h-4.609c-.946 0-1.667.836-1.529 1.771z" fill="url(#paint2_linear_3_352)"/><path d="M243.096 153.892l.894 4.938a3.21 3.21 0 004.142 2.481l3.282-1.056a3.213 3.213 0 002.215-3.323l-.409-4.822a3.213 3.213 0 00-3.975-2.844l-3.766.94a3.212 3.212 0 00-2.383 3.686z" fill="#B9BFE6"/><defs><linearGradient id="paint0_linear_3_352" x1="324.63" y1="131.825" x2="335.181" y2="97.026" gradientUnits="userSpaceOnUse"><stop stop-color="#F9B776"/><stop offset="1" stop-color="#F47960"/></linearGradient><linearGradient id="paint1_linear_3_352" x1="224.719" y1="171.585" x2="252.903" y2="171.585" gradientUnits="userSpaceOnUse"><stop stop-color="#09005D"/><stop offset="1" stop-color="#1A0F91"/></linearGradient><linearGradient id="paint2_linear_3_352" x1="231.007" y1="163.917" x2="214.46" y2="190.847" gradientUnits="userSpaceOnUse"><stop stop-color="#FE7062"/><stop offset="1" stop-color="#FF928E"/></linearGradient></defs></svg>