<svg width="41" height="52" viewBox="0 0 41 52" fill="none" xmlns="http://www.w3.org/2000/svg"><path fill-rule="evenodd" clip-rule="evenodd" d="M9.097 10.523a2.95 2.95 0 00-2.74 1.868l-3.626 9.143a1.61 1.61 0 00-.105.778c-1.14.875-1.876 2.29-1.876 3.883v7.495c0 1.019.706 1.882 1.652 2.044v3.311c0 1.138.916 2.063 2.05 2.063H8.84c1.133 0 2.05-.925 2.05-2.063V35.76h19.82v3.285c0 1.138.915 2.063 2.05 2.063h4.387c1.134 0 2.05-.925 2.05-2.063v-3.311c.946-.162 1.652-1.025 1.652-2.044v-7.495c0-1.593-.737-3.008-1.876-3.883a1.609 1.609 0 00-.105-.778l-3.626-9.143a2.95 2.95 0 00-2.74-1.868H9.097zm-.604 2.725a.65.65 0 01.604-.412h23.405a.65.65 0 01.603.412l3.232 8.147H34.54c-.524-3.077-3.185-5.42-6.393-5.42-3.208 0-5.87 2.343-6.393 5.42H5.262l3.231-8.147zm19.654 5.04a4.193 4.193 0 014.04 3.106h-8.08a4.193 4.193 0 014.04-3.106zM2.972 26.195c0-1.26.88-2.286 2-2.456h31.654c1.121.17 2.001 1.196 2.001 2.456v7.245h-1.201a2.045 2.045 0 00-.28-.019H32.76c-.094 0-.188.007-.279.02H9.119a2.046 2.046 0 00-.28-.02H4.453c-.094 0-.188.007-.279.02H2.972v-7.246zm1.73 12.6V35.76H8.59v3.035H4.702zm28.307 0V35.76h3.888v3.035h-3.888z" fill="#1E1E1E"/></svg>