<svg width="42" height="52" viewBox="0 0 42 52" fill="none" xmlns="http://www.w3.org/2000/svg"><path d="M20.89 9.98a16.15 16.15 0 00-13.978 8.03.908.908 0 00.332 1.245.914.914 0 001.246-.331 14.324 14.324 0 0112.4-7.125c7.09 0 12.977 5.133 14.12 11.87l-2.457-2.447a.914.914 0 00-1.29 0 .908.908 0 000 1.287l4.215 4.199a.914.914 0 001.29 0l4.215-4.199a.908.908 0 000-1.287.914.914 0 00-1.29 0L36.903 24C35.888 16.091 29.105 9.98 20.89 9.98zm.372 31.676c5.973 0 11.187-3.25 13.978-8.076a.912.912 0 10-1.579-.915c-2.478 4.285-7.104 7.164-12.4 7.164-7.09 0-12.976-5.161-14.12-11.938l2.458 2.46a.912.912 0 001.29 0 .914.914 0 000-1.29l-4.215-4.223a.912.912 0 00-1.29 0L1.169 29.06a.914.914 0 000 1.292.912.912 0 001.29 0l2.79-2.794c1.016 7.952 7.797 14.098 16.013 14.098z" fill="#1E1E1E"/></svg>