<svg width="42" height="52" viewBox="0 0 42 52" fill="none" xmlns="http://www.w3.org/2000/svg"><path fill-rule="evenodd" clip-rule="evenodd" d="M22.29 6.073a2.274 2.274 0 00-2.336 0L2 16.918c-.911.55-1.167 1.505-.914 2.316.253.81 1.01 1.473 2.082 1.473h1.44v23.236a2.06 2.06 0 002.057 2.064h28.914a2.06 2.06 0 002.057-2.063V20.707h1.44c1.072 0 1.829-.663 2.081-1.473.254-.812-.002-1.765-.914-2.316L22.29 6.073zm-1.168 2.025L38.178 18.4H4.065L21.122 8.098zM6.915 43.694v-22.89h28.414v22.89h-8.355V32.745a2.057 2.057 0 00-2.057-2.057h-7.59a2.057 2.057 0 00-2.057 2.057v10.949H6.915zm10.662 0V32.995h7.09v10.699h-7.09z" fill="#1E1E1E"/></svg>