<svg width="42" height="52" viewBox="0 0 42 52" fill="none" xmlns="http://www.w3.org/2000/svg"><path fill-rule="evenodd" clip-rule="evenodd" d="M14.792 9.617c-.97 0-1.75.795-1.75 1.77v2.483H2.5a1.76 1.76 0 00-1.749 1.77v24.61c0 .973.78 1.768 1.75 1.768h36.878c.969 0 1.749-.795 1.749-1.769V15.64c0-.973-.78-1.768-1.75-1.768H28.835v-2.485c0-.974-.78-1.77-1.75-1.77H14.793zm.25 4.253v-2.234h11.793v2.235H15.042zM2.749 25.34v-9.45h36.379v9.45H24.907a1.755 1.755 0 00-1.72-1.443H18.69c-.859 0-1.569.623-1.72 1.443H2.75zm16.19 4.633v-4.057h3.998v4.057H18.94zM2.75 39.999V27.36h14.192v2.864c0 .974.78 1.77 1.749 1.77h4.497c.97 0 1.75-.796 1.75-1.77V27.36h14.19V40H2.75z" fill="#1E1E1E"/></svg>