<svg width="41" height="52" viewBox="0 0 41 52" fill="none" xmlns="http://www.w3.org/2000/svg"><path fill-rule="evenodd" clip-rule="evenodd" d="M20.863 5.75a8.705 8.705 0 00-8.72 8.692v2.015H8.025c-1.367 0-2.558.915-2.78 2.195L.77 44.346c-.156.895.594 1.66 1.514 1.66h37.159c.92 0 1.67-.766 1.513-1.66l-4.475-25.694c-.223-1.28-1.413-2.195-2.78-2.195h-4.117v-2.015a8.705 8.705 0 00-8.72-8.692zm-6.51 8.692c0-3.722 2.985-6.617 6.51-6.617s6.51 2.895 6.51 6.617v2.015h-13.02v-2.015zm-6.925 4.545c.043-.248.284-.456.598-.456h4.116v4.553c0 .592.515 1.037 1.106 1.037.59 0 1.105-.445 1.105-1.037V18.53h13.02v4.553c0 .592.515 1.037 1.105 1.037.591 0 1.106-.445 1.106-1.037V18.53H33.7c.314 0 .556.208.599.456l4.345 24.945H3.083l4.345-24.945z" fill="#1E1E1E"/></svg>