<svg width="41" height="52" viewBox="0 0 41 52" fill="none" xmlns="http://www.w3.org/2000/svg"><path fill-rule="evenodd" clip-rule="evenodd" d="M6.464 19.586a6.232 6.232 0 100 12.463 6.232 6.232 0 000-12.463zm-4.078 6.231a4.078 4.078 0 118.156 0 4.078 4.078 0 01-8.156 0zm17.808-6.231c-3.464 0-6.276 2.788-6.276 6.231 0 3.444 2.812 6.232 6.276 6.232 3.465 0 6.277-2.788 6.277-6.232 0-3.443-2.812-6.231-6.277-6.231zm-4.11 6.231c0-2.25 1.838-4.078 4.11-4.078 2.273 0 4.111 1.828 4.111 4.078 0 2.251-1.838 4.079-4.11 4.079-2.273 0-4.112-1.828-4.112-4.079zm17.841-6.231a6.232 6.232 0 100 12.463 6.232 6.232 0 000-12.463zm-4.079 6.231a4.078 4.078 0 118.157 0 4.078 4.078 0 01-8.157 0z" fill="#1E1E1E"/></svg>