<svg width="723" height="398" viewBox="0 0 723 398" fill="none" xmlns="http://www.w3.org/2000/svg"><path d="M110.403 19.699c103.988-37.79 209.68-4.381 281.361 68.389 71.68 72.767 222.115-50.227 301.9 22.423 54.448 49.58 29.509 177.053-45.15 232.263-101.478 75.043-410.08 36.967-476.838 24.194C94.77 352.256 38.544 307.615 15.701 253.434c-55.047-130.55 48.748-217.036 94.702-233.735z" fill="#E8E0FF"/><path d="M621.539 33.038h-12.261c-4.735 0-8.587-3.853-8.587-8.591V12.181c0-4.738 3.852-8.592 8.587-8.592h12.261c4.735 0 8.587 3.854 8.587 8.591v12.267c0 4.74-3.852 8.591-8.587 8.591zM609.278 6.972a5.215 5.215 0 00-5.208 5.21V24.45a5.215 5.215 0 005.208 5.21h12.261a5.215 5.215 0 005.208-5.21V12.183a5.215 5.215 0 00-5.208-5.21h-12.261zm-45.43 26.066h-12.261c-4.735 0-8.587-3.853-8.587-8.591V12.181c0-4.738 3.852-8.592 8.587-8.592h12.261c4.736 0 8.588 3.854 8.588 8.591v12.267c-.003 4.74-3.855 8.591-8.588 8.591zM551.585 6.972a5.215 5.215 0 00-5.208 5.21V24.45a5.215 5.215 0 005.208 5.21h12.261a5.215 5.215 0 005.208-5.21V12.183a5.215 5.215 0 00-5.208-5.21h-12.261z" fill="#8969EA" opacity=".8"/><path d="M558.483 25.898c-.024 0-.046 0-.07-.002a1.45 1.45 0 01-1.079-.565l-8.812-11.501a1.448 1.448 0 112.298-1.763l7.772 10.142 20.29-21.75a1.449 1.449 0 012.117 1.978l-21.457 23a1.448 1.448 0 01-1.059.461z" fill="#E35B52"/><path d="M664.628 372.274c-46.059-2.418-202.744 1.679-250.398 3.275-47.653 1.595-102.966-2.107-131.7-7.553-28.733-5.445-194.818.464-187.281 15.107 7.536 14.644 73.999 6.552 149.368 12.437 75.37 5.885 244.877-.735 283.111 0 38.236.735 73.297-1.472 122.571-4.413 49.274-2.942 41.029-17.452 14.329-18.853z" fill="#C5B9EA"/><path d="M376.924 223.159H141.561a2.561 2.561 0 01-2.561-2.562v-3.841a2.56 2.56 0 012.561-2.562h235.363a2.56 2.56 0 012.56 2.562v3.841a2.563 2.563 0 01-2.56 2.562z" fill="#2E5B9A"/><path d="M437.528 94.034c3.187 11.249-4.6 22.841-13.181 25.276-8.581 2.436-14.703-5.207-17.891-16.456-3.188-11.249 1.18-22.34 9.761-24.775 8.581-2.435 18.12 4.707 21.311 15.955zm-48.107 217.964s21.99 34.17 24.959 35.656c2.971 1.487 10.394 1.857 7.611 7.429-2.783 5.572-3.899 27.486-6.496 28.599-2.598 1.115-24.872 3.714-21.533 0 3.342-3.715 5.396-1.858 7.083-8.542 1.686-6.685 4.055-19.315.899-21.914-3.157-2.599-22.46-25.999-22.46-25.999l9.937-15.229zm-110.675 14.676s-26.732 44.077-31.68 48.039c-4.952 3.962-21.286 9.905-7.92 10.897 13.365.989 19.8-4.456 28.214-6.935 8.414-2.478 18.811-3.962 14.851-10.399-3.96-6.437-2.313-20.492 6.221-29.408 8.538-8.916-9.686-12.194-9.686-12.194z" fill="#F09959"/><path d="M415.155 224.466s-66.171-1.731-92.405 19.809c-15.346 23.277-52.468 91.954-55.353 99.522 1.98 1.981 13.118 5.557 18.067 5.059 14.601-17.42 33.904-32.48 41.58-46.145 9.461-16.839 12.374-25.258 27.72-26.744 15.345-1.487 49.997-6.437 60.391-6.437 10.394 0 0-45.064 0-45.064z" fill="#744AF9"/><path d="M472.859 385.724h-3.469l-24.872-103.82h7.63l20.711 103.82zm-103.905 0h3.469l28.542-107.492h-7.63l-24.381 107.492z" fill="#2E5B9A"/><path d="M452.852 219.929l-38.472 6.645s-51.125.469-74.493 4.824c-21.261 3.962-24.393 28.131 0 61.408 13.857 18.904 25.573 33.985 49.534 50.988 6.094-4.478 8.427-6.171 10.11-16.941-1.733-2.38-6.224-17.266-7.617-20.18-13.252-27.715-30.942-37.795-31.186-40.521 2.972-4.827 78.669 25.168 93.721 7.522 14.373-16.843-1.597-53.745-1.597-53.745z" fill="#8969EA"/><path d="M454.449 132.794c-10.131-1.422-20.451.503-30.101 7.494-8.433 8.6-17.978 22.785-17.391 46.179.742 29.714-4.596 31.621.973 39.791 23.226 9.596 62.949 50.821 53.593 6.623-6.774-32.004 14.855-55.858-2.592-91.357-1.421-2.887-3.197-5.686-4.482-8.73z" fill="#FF7B79"/><path d="M406.95 197.651c-.45 15.489-2.637 20.053-.966 24.908 9.467.968 26.787 4.76 31.114 10.82 4.952 6.931 9.9 7.923 7.59 2.806-2.311-5.118-8.414-12.38.991-37.307 9.406-24.927 13.86-41.766 4.621-59.097l-43.35 57.87z" fill="#E35B52"/><path d="M454.449 132.794c-6.24-14.779-7.772-31.38-7.772-31.38l-16.334 4.827s9.282 20.798.371 28.228c-1.894 1.579-4.09 3.495-6.37 5.819 9.656-6.991 19.973-8.916 30.105-7.494z" fill="#F09959"/><path d="M447.172 105.351a839.103 839.103 0 00-3.451-3.059l-13.322 3.937-.028.071c.321.735 3.716 8.659 4.161 16.28 3.969-2.411 8.318-6.338 13.288-13.202a136.786 136.786 0 01-.648-4.027z" fill="#E38540"/><path d="M442.968 137.441c-16.823 5.888-14.957 23.62-30.442 49.771-8.012 13.532-15.457 13.331-15.457 13.331s-18.793.152-41.524-2.629c-14.234-1.74-15.139 2.497-5.239 6.038 19.967 7.142 40.684 14.828 57.389 12.97 16.705-1.857 45.278-44.501 46.751-55.601 2.042-15.35-3.006-26.843-11.478-23.88z" fill="#F09959"/><path d="M434.303 286.23c-1.047 0-2.116-.012-3.216-.04-13.711-.34-23.043-2.238-30.543-3.761-8.757-1.78-13.579-2.76-19.194-.077a4.325 4.325 0 01-5.767-2.04 4.329 4.329 0 012.038-5.77c8.226-3.934 15.115-2.534 24.644-.593 7.166 1.458 16.087 3.269 29.036 3.591 14.493.361 23.33-1.79 27.809-6.759 3.991-4.428 5.159-11.867 3.676-23.409-.507-3.95-1.016-7.238-1.464-10.137-1.264-8.18-2.101-13.582-1.066-21.935.961-7.757 3.528-18.091 9.474-38.126a4.328 4.328 0 015.378-2.917 4.33 4.33 0 012.916 5.38c-11.08 37.335-10.518 40.972-8.155 56.276.457 2.951.973 6.295 1.495 10.355 1.828 14.238-.022 23.867-5.829 30.311-5.983 6.629-15.689 9.651-31.232 9.651z" fill="#2E5B9A"/><path d="M280.562 363.823c-17.737 8.677-27.282 13.65-32.968 13.177a46.704 46.704 0 01-3.389-.396c-6.326 3.74-16.421 8.159-5.063 9.003 13.366.989 19.8-4.457 28.215-6.935 8.414-2.479 18.811-3.962 14.851-10.399-.757-1.233-1.307-2.747-1.646-4.45zm135.754-15.443c-.432 14.049-2.363 27.971-10.953 30.601-2.276.699-4.352.797-6.187.553-1.35 1.672-2.999 1.691-5.211 4.148-3.342 3.714 18.932 1.115 21.533 0 2.597-1.116 3.713-23.027 6.496-28.599 2.286-4.576-2.317-5.646-5.678-6.703z" fill="#8969EA"/><path d="M347.996 215.421h-56.345a4.326 4.326 0 01-3.923-2.504l-22.771-49.028a4.33 4.33 0 012.1-5.748 4.324 4.324 0 015.745 2.101l21.607 46.526h53.587a4.326 4.326 0 014.324 4.326 4.324 4.324 0 01-4.324 4.327z" fill="#75A1DE"/><path d="M359.786 198.405c-11.386-.164-22.676-6.953-28.288-5.964-5.61.992-23.927 13.702-21.617 14.197 2.311.494 16.832-7.034 17.326-7.148.494-.115 3.63 5.213 11.386 7.172 7.756 1.957.055-5.816 24.093 1.45 15.633 4.719-2.9-9.707-2.9-9.707z" fill="#F09959"/><path d="M452.775 119.31l1.674 13.487s-14.734.877-22.064 5.003-18.151 16.051-18.151 16.051l8.841-15.226 1.273-9.741 28.427-9.574z" fill="#F2E5DE"/><path d="M446.504 135.819c-10.944-2.052-16.003 7.76-23.099 23.771-7.095 16.014-19.207 35.462-21.616 37.968-2.409 2.507-40.591 0-40.591 0s-1.156 11.061 0 12.38c1.155 1.32 7.756 1.156 7.756 1.156s2.641 2.108 5.115 3.78c2.474 1.668 23.43 4.805 33.166 4.311 9.736-.495 18.645-1.32 19.963-2.806 1.319-1.487 27.887-42.425 29.537-57.12 1.649-14.691-4.646-22.395-10.231-23.44z" fill="#F2E5DE"/><path d="M414.234 68.465c-20.695.992-17.449 32.139-17.449 32.139s5.375 1.66 16.637-.197c-.865-3.344-.494-11.886-.494-11.886s1.309 6.935 2.971 11.144c2.382 1.091 5.075.123 9.653-.983 2.351 9.899 8.995 14.08 13.545 15.511 5.026 1.582 10.348 3.467 16.288.494 5.94-2.973 2.675-33.345-.482-39.454-4.735-9.17-12.603-17.375-26.216-13.042-6.829 2.173-14.453 6.274-14.453 6.274z" fill="#303C60"/><path d="M450.226 105.459l8.461 12.365s-9.378 23.44 17.897 34.062c21.36 8.316 18.842 22.974 9.193 37.712-9.65 14.738 5.776 27.609 5.776 27.609s2.354-16.327 23.105-19.408c28.298-4.202 36.31-42.211 15.176-61.217-17.49-15.726-22.812-2.704-34.652-16.817-11.839-14.114-34.188-4.58-34.188-4.58l-8.191-11.951-2.577 2.225z" fill="#303C60"/><path d="M539.567 174.869a.757.757 0 01-.661-1.116c7.117-13.01 1.309-28.771-1.61-33.042-.308-.451-.602-.912-.914-1.397-2.869-4.481-6.44-10.056-25.493-13.489-4.59-.825-8.303-3.554-12.238-6.444-8.124-5.967-17.335-12.732-37.342-3.516a.752.752 0 11-.63-1.366c20.813-9.584 30.404-2.544 38.862 3.671 3.79 2.781 7.367 5.411 11.614 6.178 19.701 3.547 23.467 9.431 26.494 14.157.305.475.593.924.889 1.359 3.058 4.472 9.143 20.987 1.69 34.615a.758.758 0 01-.661.39zm-93.86-56.739c-1.353 0-2.82-.118-4.395-.356-7.241-1.084-16.956-5.201-17.715-28.32a.752.752 0 011.501-.05c.315 9.529 2.202 16.581 5.615 20.957 2.592 3.325 6.03 5.207 10.821 5.924 6.7 1.004 11.142-.235 13.199-3.681a.753.753 0 011.291.773c-1.884 3.161-5.347 4.753-10.317 4.753z" fill="#303C60"/><path d="M613.684 231.293c10.688 9.766 6.041 19.53-1.861 37.665-7.901 18.135-9.295 85.099-9.295 85.099l6.508-.93s-.93-68.822 7.902-87.425c8.831-18.602 12.549-27.901 20.45-21.854 7.902 6.047-23.704-12.555-23.704-12.555z" fill="#74B570"/><path d="M607.811 218.649c1.297-5.787 9.01-12.05 19.318-17.363-1.535 8.537-6.45 22.493-1.363 25.354 6.862 3.86.669-15.625 3.316-26.336 9.683-4.729 21.326-8.595 32.052-10.519a1.236 1.236 0 01-.044.117c-6.042 15.347-13.943 21.391-10.689 23.716 2.447 1.748 10.421-15.979 20.948-25.065 7.902-.423 14.588.649 18.542 3.784 6.114 4.842 10.215 9.138 4.068 23.88-3.512 2.511-8.063 4.31-13.349 4.839-13.943 1.394-20.451 1.861-10.692 6.511 4.781 2.277 12.793-.13 19.287-1.593-2.108 3.884-4.699 8.283-7.847 13.29-1.997 3.176-4.194 5.934-6.532 8.317-4.493.862-8.413.872-10.486-.017-6.508-2.792-23.241-11.625-27.422-7.906-4.095 3.641 30.988 5.948 28.558 15.2-17.004 9.8-36.463 5.137-39.902-3.864-4.617-12.081-21.673-14.924-17.763-32.345z" fill="#9CD499"/><path d="M642.966 284.768c-18.594-13.952-37.651-.93-47.409 13.949-9.762 14.88-2.791 48.362-2.791 48.362s3.717 0 3.717-1.394-10.225-39.526 13.943-56.734c15.12-10.762 26.028-5.58 27.422-.464 1.394 5.117-6.041 14.417-6.041 14.417l11.159-18.136z" fill="#74B570"/><path d="M600.204 256.091c18.594 0 24.635 28.832 19.52 45.573-5.114 16.741-12.085 47.898-12.085 47.898l-4.648-4.649s17.664-43.713 13.479-63.242c-4.184-19.53-14.409-22.785-16.269-22.785-1.857-.004.003-2.795.003-2.795z" fill="#9CD499"/><path d="M615.798 301.794c1.308-1.734 2.924-3.166 4.895-4.114a36.947 36.947 0 01-.965 3.984c-2.33 7.627-5.045 18.245-7.311 27.548-.206-1.192-.522-3.025-1.013-5.858a25.593 25.593 0 01-.271-2.164c1.82-6.195 3.539-12.946 4.665-19.396z" fill="#74B570"/><path d="M620.881 301.935c35.324-14.879 16.713-35.298 47.856-21.816 2.193.951 4.867 3.345 7.544 6.648-2.773.787-6.134 1.353-9.868.793-9.295-1.394-6.041 6.044 9.295 7.906 2.89.35 5.238.834 7.187 1.517 7.308 14.042 10.6 32.518-4.863 38.939-3.048 1.268-6.814 1.989-11.005 2.26-4.771-3.795 1.164-25.752-6.192-22.72-7.064 2.909 2.214 18.822.944 22.833-6.971-.127-14.691-1.267-22.067-3.094-2.918-1.638-5.149-3.832-5.835-6.717-2.324-9.766 13.015-15.81 13.479-24.183.429-7.695-5.623 16.93-21.649 20.553-14.492-6.775-21.339-15.965-4.826-22.919zm-25.17-26.312c3.717-7.905-6.041-9.766-5.578-3.719.412 5.357.457 18.379-5.035 21.923-9.47-1.026-22.356-4.845-32.097-10.662-.124-.787-.003-1.597.408-2.425 4.185-8.372 31.143-15.347 22.775-18.135-6.663-2.222-18.34 10.893-27.748 17.5-5.65-4.289-9.436-9.403-9.436-15.11 0-7.727 9.381-16.47 21.515-20.649 5.461.549 10.534 3.537 18.456 8.029 11.705 6.634 8.997-4.094-2.07-10.46 9.553.494 19.078 4.577 26.104 14.333 0 0-.666 4.169 3.748 10.622 12.035 17.596-1.853 27.871-18.456 27.205.944-4.643 4.843-12.988 7.414-18.452z" fill="#9CD499"/><path d="M641.847 283.979c9.089 7.026 19.187 15.243 31.582 20.824 12.394 5.58 9.916 23.767 9.916 23.767s1.861-15.707-8.471-21.082c-10.328-5.374-17.149-11.782-24.999-13.022-7.85-1.239-12.188-2.479-12.188-2.479s2.478-4.962 1.033-6.82c-1.445-1.858 3.127-1.188 3.127-1.188zm44.804-82.518c-33.26 8.888-57.638 30.175-62.182 35.344-4.545 5.168-4.545 6.614-4.545 6.614l3.511 6.614 1.651-.828s-2.684-5.58 4.339-12.816c12.113-12.476 26.856-22.321 36.978-26.662 10.126-4.337 20.248-8.266 20.248-8.266z" fill="#74B570"/><path d="M594.84 385.654h12.706c9.038 0 16.363-7.328 16.363-16.37v-29.21H578.48v29.21c-.003 9.039 7.322 16.37 16.36 16.37z" fill="#8969EA"/><path d="M623.906 345.294h-45.429v3.2h45.429v-3.2zm0 5.834h-45.429v1.882h45.429v-1.882z" fill="#fff"/></svg>