<svg width="529" height="486" viewBox="0 0 529 486" fill="none" xmlns="http://www.w3.org/2000/svg"><path d="M224.495 113.947c-18.701 63.5-123.247 99.626-146.301 164.809-73.077 206.615 413.517 182.473 399.873-53.11-9.09-156.982-210.399-258.299-253.572-111.699z" fill="#E8E0FF"/><path d="M360.732 291.046H243.745a4.286 4.286 0 01-4.274-4.273v-5.262a4.285 4.285 0 014.274-4.273h121.26v9.535a4.286 4.286 0 01-4.273 4.273z" fill="#AEACE7"/><path d="M284.408 378.35l-.159-.002c-1.295-.023-2.295-1.081-2.174-2.3l8.639-86.262 7.537.671-12.404 86.727c-.096.679-.715 1.18-1.439 1.166zm83.171 0l.159-.002c1.294-.023 2.295-1.081 2.173-2.3l-8.638-86.262-7.537.671 12.403 86.727c.097.679.715 1.18 1.44 1.166zm-144.107 0l-.159-.002c-1.295-.023-2.295-1.081-2.174-2.3l8.639-86.262 7.537.671-12.404 86.727c-.096.679-.715 1.18-1.439 1.166zm141.533-101.113l15.332-75.712c1.968-10.251-6.528-19.626-17.556-19.373l-29.57.677a23.358 23.358 0 00-21.904 16.86l-22.431 77.551h76.129v-.003z" fill="#AEACE7"/><path d="M355.73 277.237l15.331-75.712c1.969-10.251-6.527-19.626-17.555-19.373l-29.57.677a23.358 23.358 0 00-21.904 16.86l-22.431 77.551h76.129v-.003z" fill="#AEACE7"/><path d="M263.091 261.393c6.33 11.015 14.29 15.267 14.29 15.267h33.116s-52.233-23.671-47.406-15.267z" fill="#233862"/><path d="M222.248 370.827c.358 3.476-4.476 4.373-10.081 4.713-5.605.34-3.898 1.47-11.568 2.944-7.671 1.474-10.773-.596-11.341-1.629-.506-.915 3.052-2.394 6.842-4.063.478-.21.954-.424 1.433-.638 4.266-1.929 6.628-5.8 9.931-9.399 3.128-3.409 6.019-14.248 6.019-14.248l10.418-2.341s-2.829 9.758-3.802 13.921c-.572 2.449.341 5.17 1.148 7.24.437 1.122.876 2.275 1.001 3.5z" fill="#F09959"/><path d="M212.167 375.538c-5.605.34-3.898 1.469-11.569 2.943-7.67 1.475-10.772-.595-11.34-1.628-.506-.915 3.052-2.394 6.842-4.064l.06.065s5.423 1.777 11.642.013c5.069-1.435 9.952-4.526 13.445-5.545.435 1.127.874 2.279.998 3.503.361 3.475-4.473 4.374-10.078 4.713z" fill="#0F2549"/><path d="M238.034 250.11c5.607-3.938 42.696-10.955 61.622-12.985l20.92-18.16s17.805 26.373 17.948 46.55c.067 9.409-4.266 10.342-4.269 10.345 0 0-67.06.496-70.002.8-4.811.497-11.159 12.484-12.744 23.402-1.587 10.917-29.551 55.322-29.551 55.322s-5.833 1.869-8.528 1.711c-2.9-.171-4.244-1.141-4.244-1.141s16.203-96.966 28.848-105.844z" fill="#E35B52"/><path d="M239.593 370.827c.359 3.476-4.475 4.373-10.08 4.713-5.605.34-3.898 1.47-11.569 2.944-7.67 1.474-10.772-.596-11.34-1.629-.506-.915 3.052-2.394 6.842-4.063.476-.21.954-.424 1.433-.638 4.266-1.929 6.628-5.8 9.931-9.399 3.128-3.409 6.019-14.248 6.019-14.248l10.42-2.341s-2.828 9.758-3.801 13.921c-.573 2.449.34 5.17 1.147 7.24.435 1.122.874 2.275.998 3.5z" fill="#F09959"/><path d="M229.513 375.538c-5.605.34-3.898 1.469-11.569 2.943-7.67 1.475-10.772-.595-11.34-1.628-.506-.915 3.052-2.394 6.842-4.064l.06.065s5.423 1.777 11.642.013c5.069-1.435 9.951-4.526 13.445-5.545.435 1.127.874 2.279.998 3.503.361 3.475-4.473 4.374-10.078 4.713z" fill="#233862"/><path d="M255.534 250.11c4.871-3.42 19.522-6.072 35.692-8.041a10.879 10.879 0 009.234-8.164l37.613-14.94s17.806 26.373 17.949 46.55c.066 9.409-4.267 10.342-4.269 10.345 0 0-67.063.496-70.002.8-4.812.497-11.159 12.484-12.744 23.402-1.587 10.917-29.552 55.322-29.552 55.322s-5.832 1.869-8.528 1.711c-2.9-.171-4.243-1.141-4.243-1.141s16.205-96.966 28.85-105.844z" fill="#FF7B79"/><path d="M305.865 109.386c5.168-2.714 13.034-3.082 14.313-3.252 15.289-2.054 24.491 20.163 25.034 26.895.998 12.408 7.562 14.3 16.801 22.072 18.526 15.582 13.093 33.689 2.962 40.416-6.078 4.036-16.791 0-16.791 0-.152.106-29.301-16.295-43.669-24.206-21.541-3.064-11.821-55.007 1.35-61.925z" fill="#233862"/><path d="M309.055 163.668c-.066.034 6.794 3.155 11.748 1.518 4.66-1.534 8.763-8.549 8.698-8.56-2.021-.293-4.077-2.289-4.652-14.11l-.895.225-15.057 3.806s.595 4.77.841 9.28c.205 3.786.164 7.39-.683 7.841z" fill="#F09959"/><path d="M308.895 146.548s0 .982.563 5.418c8.517-2.148 12.27-4.972 14.92-8.204l-15.483 2.786z" fill="#ED975D"/><path d="M310.684 149.084s19.984-2.757 18.075-15.175c-1.909-12.419-.614-21.138-13.455-19.903-12.84 1.235-14.586 6.355-14.956 10.653-.37 4.299 5.09 24.821 10.336 24.425z" fill="#F09959"/><path d="M303.122 116.435s11.175 12.672 19.678 14.742c8.502 2.07 12.15-.25 12.15-.25s-4.503-4.922-6.624-12.155a6.12 6.12 0 00-4.508-4.264c-6.085-1.378-17.725-3.227-20.696 1.927z" fill="#233862"/><path d="M311.183 116.547s-4.807 3.517-6.562 6.376c-1.692 2.757-3.047 9.726-2.405 12.656 0 0-4.839-13.76-.237-19.489 4.88-6.074 9.204.457 9.204.457z" fill="#233862"/><path d="M293.126 194.036c.605 40.474.166 32.015 4.593 35.856 1.067.924 4.066 1.476 8.013 1.736 12.41.823 34.225-1.221 35.055-3.514 2.863-7.935.842-10.4 3.229-22.551.249-1.292.557-2.691.918-4.213 1.992-8.344 3.928-11.185-3.135-24.588-6.407-12.144-13.94-22.008-14.54-21.654-16.902 10.034-17.482 1.624-17.482 1.624s-16.948 17.562-16.651 37.304z" fill="#8969EA"/><path d="M309.78 156.729s-17.3 2.932-19.342 10.421c-2.043 7.488-14.062 51.511-14.062 51.511s8.841 1.589 12.925-2.496c4.085-4.084 14.214-37.895 14.214-37.895l6.265-21.541z" fill="#8969EA"/><path d="M305.732 231.628c12.41.823 34.225-1.221 35.055-3.514 2.864-7.935.842-10.401 3.229-22.551l-5.986-16.856s.989 18.77-4.545 23.707c-5.529 4.936-22.663 9.531-25.354 13.655-1.297 1.978-2.15 3.965-2.399 5.559z" fill="#7C5DDD"/><path d="M319.95 223.732s-12.245-2.725-14.218-1.64c-1.976 1.086-6.803 5.044-7.408 6.422-.605 1.377 4.397-1.044 6.026-1.481 1.053-.283 3.827.68 5.2 1.138 5.777 1.927 9.319.936 9.319.936l1.081-5.375z" fill="#F09959"/><path d="M327.262 155.105s17.327 1.012 23.019 8.951c8.011 11.173 23.903 58.793 14.796 65.143-10.258 7.153-46.682 1.872-46.682 1.872s-1.212-5.665.474-8.406c1.686-2.742 29.094-7.169 30.359-8.434 1.265-1.265-15.812-24.666-15.812-28.461 0-3.793-6.154-30.665-6.154-30.665z" fill="#8969EA"/><path d="M305.139 225.501s-2.565 3.31-3.407 3.705c-.841.396-1.384.297-1.384.297l1.729-3.112 3.062-.89zm.593-3.408l-7.459 3.622s.318.52 1.235.478c.918-.041 3.236-.89 3.236-.89l2.988-3.21z" fill="#FFB27D"/><path d="M224.009 192.953l12.847 37.728h53.906l-13.195-37.728h-53.558z" fill="#1C468A"/><path d="M325.8 238.69H168.2c-.663 0-1.2-.754-1.2-1.684v-4.631c0-.93.537-1.685 1.2-1.685h157.6c.662 0 1.2.755 1.2 1.685v4.631c0 .93-.536 1.684-1.2 1.684z" fill="#2E5B9A"/><path d="M164.021 378.981l-.101-.012c-1.203-.149-2.054-1.221-1.903-2.396L182.933 235l7.656.218-24.609 142.339c-.156.913-1.021 1.541-1.959 1.424zm168.71 0l.101-.012c1.203-.149 2.054-1.221 1.902-2.396L313.818 235l-7.656.218 24.609 142.339c.154.913 1.021 1.541 1.96 1.424zm-48.42 0l.101-.012c1.203-.149 2.054-1.221 1.902-2.396L265.398 235l-7.656.218 24.609 142.339c.156.913 1.021 1.541 1.96 1.424z" fill="#2E5B9A"/></svg>